<?xml version="1.0" standalone="no"?>
<!DOCTYPE svg PUBLIC "-//W3C//DTD SVG 1.1//EN" "http://www.w3.org/Graphics/SVG/1.1/DTD/svg11.dtd">
<svg version="1.1" width="1200" height="326" onload="init(evt)" viewBox="0 0 1200 326" xmlns="http://www.w3.org/2000/svg" xmlns:xlink="http://www.w3.org/1999/xlink">
<!-- Flame graph stack visualization. See https://github.com/brendangregg/FlameGraph for latest version, and http://www.brendangregg.com/flamegraphs.html for examples. -->
<!-- NOTES:  -->
<defs>
	<linearGradient id="background" y1="0" y2="1" x1="0" x2="0" >
		<stop stop-color="#eeeeee" offset="5%" />
		<stop stop-color="#eeeeb0" offset="95%" />
	</linearGradient>
</defs>
<style type="text/css">
	text { font-family:Verdana; font-size:12px; fill:rgb(0,0,0); }
	#search, #ignorecase { opacity:0.1; cursor:pointer; }
	#search:hover, #search.show, #ignorecase:hover, #ignorecase.show { opacity:1; }
	#subtitle { text-anchor:middle; font-color:rgb(160,160,160); }
	#title { text-anchor:middle; font-size:17px}
	#unzoom { cursor:pointer; }
	#frames > *:hover { stroke:black; stroke-width:0.5; cursor:pointer; }
	.hide { display:none; }
	.parent { opacity:0.5; }
</style>
<script type="text/ecmascript">
<![CDATA[
	"use strict";
	var details, searchbtn, unzoombtn, matchedtxt, svg, searching, currentSearchTerm, ignorecase, ignorecaseBtn;
	function init(evt) {
		details = document.getElementById("details").firstChild;
		searchbtn = document.getElementById("search");
		ignorecaseBtn = document.getElementById("ignorecase");
		unzoombtn = document.getElementById("unzoom");
		matchedtxt = document.getElementById("matched");
		svg = document.getElementsByTagName("svg")[0];
		searching = 0;
		currentSearchTerm = null;

		// use GET parameters to restore a flamegraphs state.
		var params = get_params();
		if (params.x && params.y)
			zoom(find_group(document.querySelector('[x="' + params.x + '"][y="' + params.y + '"]')));
                if (params.s) search(params.s);
	}

	// event listeners
	window.addEventListener("click", function(e) {
		var target = find_group(e.target);
		if (target) {
			if (target.nodeName == "a") {
				if (e.ctrlKey === false) return;
				e.preventDefault();
			}
			if (target.classList.contains("parent")) unzoom(true);
			zoom(target);
			if (!document.querySelector('.parent')) {
				// we have basically done a clearzoom so clear the url
				var params = get_params();
				if (params.x) delete params.x;
				if (params.y) delete params.y;
				history.replaceState(null, null, parse_params(params));
				unzoombtn.classList.add("hide");
				return;
			}

			// set parameters for zoom state
			var el = target.querySelector("rect");
			if (el && el.attributes && el.attributes.y && el.attributes._orig_x) {
				var params = get_params()
				params.x = el.attributes._orig_x.value;
				params.y = el.attributes.y.value;
				history.replaceState(null, null, parse_params(params));
			}
		}
		else if (e.target.id == "unzoom") clearzoom();
		else if (e.target.id == "search") search_prompt();
		else if (e.target.id == "ignorecase") toggle_ignorecase();
	}, false)

	// mouse-over for info
	// show
	window.addEventListener("mouseover", function(e) {
		var target = find_group(e.target);
		if (target) details.nodeValue = "Function: " + g_to_text(target);
	}, false)

	// clear
	window.addEventListener("mouseout", function(e) {
		var target = find_group(e.target);
		if (target) details.nodeValue = ' ';
	}, false)

	// ctrl-F for search
	// ctrl-I to toggle case-sensitive search
	window.addEventListener("keydown",function (e) {
		if (e.keyCode === 114 || (e.ctrlKey && e.keyCode === 70)) {
			e.preventDefault();
			search_prompt();
		}
		else if (e.ctrlKey && e.keyCode === 73) {
			e.preventDefault();
			toggle_ignorecase();
		}
	}, false)

	// functions
	function get_params() {
		var params = {};
		var paramsarr = window.location.search.substr(1).split('&');
		for (var i = 0; i < paramsarr.length; ++i) {
			var tmp = paramsarr[i].split("=");
			if (!tmp[0] || !tmp[1]) continue;
			params[tmp[0]]  = decodeURIComponent(tmp[1]);
		}
		return params;
	}
	function parse_params(params) {
		var uri = "?";
		for (var key in params) {
			uri += key + '=' + encodeURIComponent(params[key]) + '&';
		}
		if (uri.slice(-1) == "&")
			uri = uri.substring(0, uri.length - 1);
		if (uri == '?')
			uri = window.location.href.split('?')[0];
		return uri;
	}
	function find_child(node, selector) {
		var children = node.querySelectorAll(selector);
		if (children.length) return children[0];
	}
	function find_group(node) {
		var parent = node.parentElement;
		if (!parent) return;
		if (parent.id == "frames") return node;
		return find_group(parent);
	}
	function orig_save(e, attr, val) {
		if (e.attributes["_orig_" + attr] != undefined) return;
		if (e.attributes[attr] == undefined) return;
		if (val == undefined) val = e.attributes[attr].value;
		e.setAttribute("_orig_" + attr, val);
	}
	function orig_load(e, attr) {
		if (e.attributes["_orig_"+attr] == undefined) return;
		e.attributes[attr].value = e.attributes["_orig_" + attr].value;
		e.removeAttribute("_orig_"+attr);
	}
	function g_to_text(e) {
		var text = find_child(e, "title").firstChild.nodeValue;
		return (text)
	}
	function g_to_func(e) {
		var func = g_to_text(e);
		// if there's any manipulation we want to do to the function
		// name before it's searched, do it here before returning.
		return (func);
	}
	function update_text(e) {
		var r = find_child(e, "rect");
		var t = find_child(e, "text");
		var w = parseFloat(r.attributes.width.value) -3;
		var txt = find_child(e, "title").textContent.replace(/\([^(]*\)$/,"");
		t.attributes.x.value = parseFloat(r.attributes.x.value) + 3;

		// Smaller than this size won't fit anything
		if (w < 2 * 12 * 0.59) {
			t.textContent = "";
			return;
		}

		t.textContent = txt;
		var sl = t.getSubStringLength(0, txt.length);
		// check if only whitespace or if we can fit the entire string into width w
		if (/^ *$/.test(txt) || sl < w)
			return;

		// this isn't perfect, but gives a good starting point
		// and avoids calling getSubStringLength too often
		var start = Math.floor((w/sl) * txt.length);
		for (var x = start; x > 0; x = x-2) {
			if (t.getSubStringLength(0, x + 2) <= w) {
				t.textContent = txt.substring(0, x) + "..";
				return;
			}
		}
		t.textContent = "";
	}

	// zoom
	function zoom_reset(e) {
		if (e.attributes != undefined) {
			orig_load(e, "x");
			orig_load(e, "width");
		}
		if (e.childNodes == undefined) return;
		for (var i = 0, c = e.childNodes; i < c.length; i++) {
			zoom_reset(c[i]);
		}
	}
	function zoom_child(e, x, ratio) {
		if (e.attributes != undefined) {
			if (e.attributes.x != undefined) {
				orig_save(e, "x");
				e.attributes.x.value = (parseFloat(e.attributes.x.value) - x - 10) * ratio + 10;
				if (e.tagName == "text")
					e.attributes.x.value = find_child(e.parentNode, "rect[x]").attributes.x.value + 3;
			}
			if (e.attributes.width != undefined) {
				orig_save(e, "width");
				e.attributes.width.value = parseFloat(e.attributes.width.value) * ratio;
			}
		}

		if (e.childNodes == undefined) return;
		for (var i = 0, c = e.childNodes; i < c.length; i++) {
			zoom_child(c[i], x - 10, ratio);
		}
	}
	function zoom_parent(e) {
		if (e.attributes) {
			if (e.attributes.x != undefined) {
				orig_save(e, "x");
				e.attributes.x.value = 10;
			}
			if (e.attributes.width != undefined) {
				orig_save(e, "width");
				e.attributes.width.value = parseInt(svg.width.baseVal.value) - (10 * 2);
			}
		}
		if (e.childNodes == undefined) return;
		for (var i = 0, c = e.childNodes; i < c.length; i++) {
			zoom_parent(c[i]);
		}
	}
	function zoom(node) {
		var attr = find_child(node, "rect").attributes;
		var width = parseFloat(attr.width.value);
		var xmin = parseFloat(attr.x.value);
		var xmax = parseFloat(xmin + width);
		var ymin = parseFloat(attr.y.value);
		var ratio = (svg.width.baseVal.value - 2 * 10) / width;

		// XXX: Workaround for JavaScript float issues (fix me)
		var fudge = 0.0001;

		unzoombtn.classList.remove("hide");

		var el = document.getElementById("frames").children;
		for (var i = 0; i < el.length; i++) {
			var e = el[i];
			var a = find_child(e, "rect").attributes;
			var ex = parseFloat(a.x.value);
			var ew = parseFloat(a.width.value);
			var upstack;
			// Is it an ancestor
			if (0 == 0) {
				upstack = parseFloat(a.y.value) > ymin;
			} else {
				upstack = parseFloat(a.y.value) < ymin;
			}
			if (upstack) {
				// Direct ancestor
				if (ex <= xmin && (ex+ew+fudge) >= xmax) {
					e.classList.add("parent");
					zoom_parent(e);
					update_text(e);
				}
				// not in current path
				else
					e.classList.add("hide");
			}
			// Children maybe
			else {
				// no common path
				if (ex < xmin || ex + fudge >= xmax) {
					e.classList.add("hide");
				}
				else {
					zoom_child(e, xmin, ratio);
					update_text(e);
				}
			}
		}
		search();
	}
	function unzoom(dont_update_text) {
		unzoombtn.classList.add("hide");
		var el = document.getElementById("frames").children;
		for(var i = 0; i < el.length; i++) {
			el[i].classList.remove("parent");
			el[i].classList.remove("hide");
			zoom_reset(el[i]);
			if(!dont_update_text) update_text(el[i]);
		}
		search();
	}
	function clearzoom() {
		unzoom();

		// remove zoom state
		var params = get_params();
		if (params.x) delete params.x;
		if (params.y) delete params.y;
		history.replaceState(null, null, parse_params(params));
	}

	// search
	function toggle_ignorecase() {
		ignorecase = !ignorecase;
		if (ignorecase) {
			ignorecaseBtn.classList.add("show");
		} else {
			ignorecaseBtn.classList.remove("show");
		}
		reset_search();
		search();
	}
	function reset_search() {
		var el = document.querySelectorAll("#frames rect");
		for (var i = 0; i < el.length; i++) {
			orig_load(el[i], "fill")
		}
		var params = get_params();
		delete params.s;
		history.replaceState(null, null, parse_params(params));
	}
	function search_prompt() {
		if (!searching) {
			var term = prompt("Enter a search term (regexp " +
			    "allowed, eg: ^ext4_)"
			    + (ignorecase ? ", ignoring case" : "")
			    + "\nPress Ctrl-i to toggle case sensitivity", "");
			if (term != null) search(term);
		} else {
			reset_search();
			searching = 0;
			currentSearchTerm = null;
			searchbtn.classList.remove("show");
			searchbtn.firstChild.nodeValue = "Search"
			matchedtxt.classList.add("hide");
			matchedtxt.firstChild.nodeValue = ""
		}
	}
	function search(term) {
		if (term) currentSearchTerm = term;
		if (currentSearchTerm === null) return;

		var re = new RegExp(currentSearchTerm, ignorecase ? 'i' : '');
		var el = document.getElementById("frames").children;
		var matches = new Object();
		var maxwidth = 0;
		for (var i = 0; i < el.length; i++) {
			var e = el[i];
			var func = g_to_func(e);
			var rect = find_child(e, "rect");
			if (func == null || rect == null)
				continue;

			// Save max width. Only works as we have a root frame
			var w = parseFloat(rect.attributes.width.value);
			if (w > maxwidth)
				maxwidth = w;

			if (func.match(re)) {
				// highlight
				var x = parseFloat(rect.attributes.x.value);
				orig_save(rect, "fill");
				rect.attributes.fill.value = "rgb(230,0,230)";

				// remember matches
				if (matches[x] == undefined) {
					matches[x] = w;
				} else {
					if (w > matches[x]) {
						// overwrite with parent
						matches[x] = w;
					}
				}
				searching = 1;
			}
		}
		if (!searching)
			return;
		var params = get_params();
		params.s = currentSearchTerm;
		history.replaceState(null, null, parse_params(params));

		searchbtn.classList.add("show");
		searchbtn.firstChild.nodeValue = "Reset Search";

		// calculate percent matched, excluding vertical overlap
		var count = 0;
		var lastx = -1;
		var lastw = 0;
		var keys = Array();
		for (k in matches) {
			if (matches.hasOwnProperty(k))
				keys.push(k);
		}
		// sort the matched frames by their x location
		// ascending, then width descending
		keys.sort(function(a, b){
			return a - b;
		});
		// Step through frames saving only the biggest bottom-up frames
		// thanks to the sort order. This relies on the tree property
		// where children are always smaller than their parents.
		var fudge = 0.0001;	// JavaScript floating point
		for (var k in keys) {
			var x = parseFloat(keys[k]);
			var w = matches[keys[k]];
			if (x >= lastx + lastw - fudge) {
				count += w;
				lastx = x;
				lastw = w;
			}
		}
		// display matched percent
		matchedtxt.classList.remove("hide");
		var pct = 100 * count / maxwidth;
		if (pct != 100) pct = pct.toFixed(1)
		matchedtxt.firstChild.nodeValue = "Matched: " + pct + "%";
	}
]]>
</script>
<rect x="0.0" y="0" width="1200.0" height="326.0" fill="url(#background)"  />
<text id="title" x="600.00" y="24" >Flame Graph</text>
<text id="details" x="10.00" y="309" > </text>
<text id="unzoom" x="10.00" y="24" class="hide">Reset Zoom</text>
<text id="search" x="1090.00" y="24" >Search</text>
<text id="ignorecase" x="1174.00" y="24" >ic</text>
<text id="matched" x="1090.00" y="309" > </text>
<g id="frames">
<g >
<title>read (34 samples, 0.04%)</title><rect x="1183.8" y="181" width="0.4" height="15.0" fill="rgb(252,216,51)" rx="2" ry="2" />
<text  x="1186.79" y="191.5" ></text>
</g>
<g >
<title>rbuf_alloc (138 samples, 0.15%)</title><rect x="634.8" y="197" width="1.7" height="15.0" fill="rgb(237,147,35)" rx="2" ry="2" />
<text  x="637.81" y="207.5" ></text>
</g>
<g >
<title>lru_maintainer_thread (4,909 samples, 5.16%)</title><rect x="54.9" y="229" width="60.9" height="15.0" fill="rgb(240,162,38)" rx="2" ry="2" />
<text  x="57.89" y="239.5" >lru_ma..</text>
</g>
<g >
<title>MurmurHash3_x86_32 (14 samples, 0.01%)</title><rect x="121.6" y="149" width="0.1" height="15.0" fill="rgb(226,96,23)" rx="2" ry="2" />
<text  x="124.56" y="159.5" ></text>
</g>
<g >
<title>__GI___pthread_disable_asynccancel (11 samples, 0.01%)</title><rect x="1183.1" y="197" width="0.2" height="15.0" fill="rgb(236,146,34)" rx="2" ry="2" />
<text  x="1186.13" y="207.5" ></text>
</g>
<g >
<title>[unknown] (405 samples, 0.43%)</title><rect x="1182.2" y="245" width="5.0" height="15.0" fill="rgb(210,24,5)" rx="2" ry="2" />
<text  x="1185.22" y="255.5" ></text>
</g>
<g >
<title>item_unlock (163 samples, 0.17%)</title><rect x="1169.1" y="149" width="2.0" height="15.0" fill="rgb(253,224,53)" rx="2" ry="2" />
<text  x="1172.07" y="159.5" ></text>
</g>
<g >
<title>[libevent-2.1.so.7.0.1] (51 samples, 0.05%)</title><rect x="1182.5" y="197" width="0.6" height="15.0" fill="rgb(230,119,28)" rx="2" ry="2" />
<text  x="1185.50" y="207.5" ></text>
</g>
<g >
<title>do_item_get (29,651 samples, 31.17%)</title><rect x="666.0" y="133" width="367.8" height="15.0" fill="rgb(221,77,18)" rx="2" ry="2" />
<text  x="669.01" y="143.5" >do_item_get</text>
</g>
<g >
<title>process_bin_get_or_touch (42,647 samples, 44.83%)</title><rect x="643.0" y="165" width="529.0" height="15.0" fill="rgb(227,105,25)" rx="2" ry="2" />
<text  x="646.02" y="175.5" >process_bin_get_or_touch</text>
</g>
<g >
<title>store_item (36,625 samples, 38.50%)</title><rect x="147.9" y="149" width="454.4" height="15.0" fill="rgb(217,57,13)" rx="2" ry="2" />
<text  x="150.95" y="159.5" >store_item</text>
</g>
<g >
<title>do_item_get (228 samples, 0.24%)</title><rect x="643.6" y="149" width="2.8" height="15.0" fill="rgb(221,77,18)" rx="2" ry="2" />
<text  x="646.61" y="159.5" ></text>
</g>
<g >
<title>lru_maintainer_juggle (686 samples, 0.72%)</title><rect x="46.4" y="229" width="8.5" height="15.0" fill="rgb(251,214,51)" rx="2" ry="2" />
<text  x="49.38" y="239.5" ></text>
</g>
<g >
<title>pthread_mutex_lock@@GLIBC_2.2.5 (16 samples, 0.02%)</title><rect x="1172.2" y="101" width="0.2" height="15.0" fill="rgb(244,179,42)" rx="2" ry="2" />
<text  x="1175.21" y="111.5" ></text>
</g>
<g >
<title>do_item_replace (493 samples, 0.52%)</title><rect x="547.1" y="101" width="6.1" height="15.0" fill="rgb(210,24,5)" rx="2" ry="2" />
<text  x="550.08" y="111.5" ></text>
</g>
<g >
<title>htonll (847 samples, 0.89%)</title><rect x="612.9" y="117" width="10.5" height="15.0" fill="rgb(219,66,15)" rx="2" ry="2" />
<text  x="615.86" y="127.5" ></text>
</g>
<g >
<title>transmit (453 samples, 0.48%)</title><rect x="636.7" y="197" width="5.6" height="15.0" fill="rgb(215,50,12)" rx="2" ry="2" />
<text  x="639.72" y="207.5" ></text>
</g>
<g >
<title>conn_set_state (15 samples, 0.02%)</title><rect x="634.0" y="197" width="0.1" height="15.0" fill="rgb(243,175,41)" rx="2" ry="2" />
<text  x="636.96" y="207.5" ></text>
</g>
<g >
<title>sendmsg@plt (10 samples, 0.01%)</title><rect x="642.2" y="181" width="0.1" height="15.0" fill="rgb(215,47,11)" rx="2" ry="2" />
<text  x="645.22" y="191.5" ></text>
</g>
<g >
<title>htons (38 samples, 0.04%)</title><rect x="632.6" y="133" width="0.5" height="15.0" fill="rgb(221,77,18)" rx="2" ry="2" />
<text  x="635.58" y="143.5" ></text>
</g>
<g >
<title>conn_set_state (23 samples, 0.02%)</title><rect x="122.0" y="149" width="0.3" height="15.0" fill="rgb(243,175,41)" rx="2" ry="2" />
<text  x="125.03" y="159.5" ></text>
</g>
<g >
<title>pthread_mutex_lock@@GLIBC_2.2.5 (22 samples, 0.02%)</title><rect x="634.5" y="197" width="0.3" height="15.0" fill="rgb(244,179,42)" rx="2" ry="2" />
<text  x="637.51" y="207.5" ></text>
</g>
<g >
<title>assoc_find (17,045 samples, 17.92%)</title><rect x="822.1" y="117" width="211.4" height="15.0" fill="rgb(237,147,35)" rx="2" ry="2" />
<text  x="825.08" y="127.5" >assoc_find</text>
</g>
<g >
<title>pthread_mutex_lock@@GLIBC_2.2.5 (73 samples, 0.08%)</title><rect x="542.3" y="85" width="0.9" height="15.0" fill="rgb(244,179,42)" rx="2" ry="2" />
<text  x="545.34" y="95.5" ></text>
</g>
<g >
<title>try_read_command_binary (43,371 samples, 45.59%)</title><rect x="642.3" y="197" width="538.0" height="15.0" fill="rgb(228,110,26)" rx="2" ry="2" />
<text  x="645.34" y="207.5" >try_read_command_binary</text>
</g>
<g >
<title>pthread_mutex_lock@@GLIBC_2.2.5 (61 samples, 0.06%)</title><rect x="637.0" y="133" width="0.8" height="15.0" fill="rgb(244,179,42)" rx="2" ry="2" />
<text  x="640.01" y="143.5" ></text>
</g>
<g >
<title>[unknown] (12 samples, 0.01%)</title><rect x="1171.1" y="117" width="0.2" height="15.0" fill="rgb(210,24,5)" rx="2" ry="2" />
<text  x="1174.11" y="127.5" ></text>
</g>
<g >
<title>start_thread (11 samples, 0.01%)</title><rect x="1189.3" y="245" width="0.1" height="15.0" fill="rgb(212,34,8)" rx="2" ry="2" />
<text  x="1192.29" y="255.5" ></text>
</g>
<g >
<title>item_lock (27 samples, 0.03%)</title><rect x="145.0" y="133" width="0.3" height="15.0" fill="rgb(220,69,16)" rx="2" ry="2" />
<text  x="147.97" y="143.5" ></text>
</g>
<g >
<title>do_item_link (134 samples, 0.14%)</title><rect x="538.3" y="117" width="1.6" height="15.0" fill="rgb(211,28,6)" rx="2" ry="2" />
<text  x="541.27" y="127.5" ></text>
</g>
<g >
<title>assoc_delete (19 samples, 0.02%)</title><rect x="550.6" y="69" width="0.2" height="15.0" fill="rgb(230,117,28)" rx="2" ry="2" />
<text  x="553.56" y="79.5" ></text>
</g>
<g >
<title>item_unlink_q (77 samples, 0.08%)</title><rect x="550.8" y="69" width="1.0" height="15.0" fill="rgb(227,105,25)" rx="2" ry="2" />
<text  x="553.80" y="79.5" ></text>
</g>
<g >
<title>resp_reset (347 samples, 0.36%)</title><rect x="627.9" y="117" width="4.3" height="15.0" fill="rgb(211,27,6)" rx="2" ry="2" />
<text  x="630.92" y="127.5" ></text>
</g>
<g >
<title>htons@plt (15 samples, 0.02%)</title><rect x="633.1" y="133" width="0.1" height="15.0" fill="rgb(237,151,36)" rx="2" ry="2" />
<text  x="636.05" y="143.5" ></text>
</g>
<g >
<title>do_slabs_newslab (85 samples, 0.09%)</title><rect x="1178.7" y="69" width="1.0" height="15.0" fill="rgb(248,197,47)" rx="2" ry="2" />
<text  x="1181.69" y="79.5" ></text>
</g>
<g >
<title>do_item_get (29,749 samples, 31.27%)</title><rect x="169.3" y="117" width="369.0" height="15.0" fill="rgb(221,77,18)" rx="2" ry="2" />
<text  x="172.26" y="127.5" >do_item_get</text>
</g>
<g >
<title>MurmurHash3_x86_32 (12 samples, 0.01%)</title><rect x="1171.1" y="133" width="0.2" height="15.0" fill="rgb(226,96,23)" rx="2" ry="2" />
<text  x="1174.11" y="143.5" ></text>
</g>
<g >
<title>reset_cmd_handler (15 samples, 0.02%)</title><rect x="636.5" y="197" width="0.2" height="15.0" fill="rgb(221,75,18)" rx="2" ry="2" />
<text  x="639.52" y="207.5" ></text>
</g>
<g >
<title>do_item_alloc_pull (607 samples, 0.64%)</title><rect x="1172.2" y="117" width="7.5" height="15.0" fill="rgb(222,78,18)" rx="2" ry="2" />
<text  x="1175.21" y="127.5" ></text>
</g>
<g >
<title>do_item_alloc (627 samples, 0.66%)</title><rect x="1172.1" y="133" width="7.7" height="15.0" fill="rgb(210,24,5)" rx="2" ry="2" />
<text  x="1175.06" y="143.5" ></text>
</g>
<g >
<title>item_link_q (73 samples, 0.08%)</title><rect x="547.5" y="69" width="1.0" height="15.0" fill="rgb(244,180,43)" rx="2" ry="2" />
<text  x="550.55" y="79.5" ></text>
</g>
<g >
<title>pthread_mutex_unlock@plt (176 samples, 0.19%)</title><rect x="1166.9" y="133" width="2.1" height="15.0" fill="rgb(247,194,46)" rx="2" ry="2" />
<text  x="1169.87" y="143.5" ></text>
</g>
<g >
<title>event_active_nolock_ (16 samples, 0.02%)</title><rect x="1187.0" y="229" width="0.2" height="15.0" fill="rgb(213,40,9)" rx="2" ry="2" />
<text  x="1189.99" y="239.5" ></text>
</g>
<g >
<title>pthread_mutex_lock@@GLIBC_2.2.5 (110 samples, 0.12%)</title><rect x="538.5" y="101" width="1.4" height="15.0" fill="rgb(244,179,42)" rx="2" ry="2" />
<text  x="541.54" y="111.5" ></text>
</g>
<g >
<title>item_alloc (627 samples, 0.66%)</title><rect x="1172.1" y="149" width="7.7" height="15.0" fill="rgb(237,147,35)" rx="2" ry="2" />
<text  x="1175.06" y="159.5" ></text>
</g>
<g >
<title>try_read_command_binary (17 samples, 0.02%)</title><rect x="1182.0" y="213" width="0.2" height="15.0" fill="rgb(228,110,26)" rx="2" ry="2" />
<text  x="1185.01" y="223.5" ></text>
</g>
<g >
<title>clock_gettime@@GLIBC_2.17 (181 samples, 0.19%)</title><rect x="1184.7" y="229" width="2.3" height="15.0" fill="rgb(250,209,50)" rx="2" ry="2" />
<text  x="1187.74" y="239.5" ></text>
</g>
<g >
<title>[unknown] (34 samples, 0.04%)</title><rect x="1183.8" y="165" width="0.4" height="15.0" fill="rgb(210,24,5)" rx="2" ry="2" />
<text  x="1186.79" y="175.5" ></text>
</g>
<g >
<title>pthread_mutex_unlock@@GLIBC_2.2.5 (38 samples, 0.04%)</title><rect x="552.7" y="69" width="0.5" height="15.0" fill="rgb(227,104,24)" rx="2" ry="2" />
<text  x="555.70" y="79.5" ></text>
</g>
<g >
<title>__GI___pthread_enable_asynccancel (44 samples, 0.05%)</title><rect x="1180.4" y="181" width="0.5" height="15.0" fill="rgb(240,165,39)" rx="2" ry="2" />
<text  x="1183.36" y="191.5" ></text>
</g>
<g >
<title>mc_swap64 (823 samples, 0.87%)</title><rect x="613.2" y="101" width="10.2" height="15.0" fill="rgb(209,21,5)" rx="2" ry="2" />
<text  x="616.15" y="111.5" ></text>
</g>
<g >
<title>pthread_mutex_unlock@@GLIBC_2.2.5 (115 samples, 0.12%)</title><rect x="549.1" y="69" width="1.5" height="15.0" fill="rgb(227,104,24)" rx="2" ry="2" />
<text  x="552.12" y="79.5" ></text>
</g>
<g >
<title>__vdso_clock_gettime (42 samples, 0.04%)</title><rect x="1184.2" y="229" width="0.5" height="15.0" fill="rgb(254,226,54)" rx="2" ry="2" />
<text  x="1187.22" y="239.5" ></text>
</g>
<g >
<title>mc-worker (86,601 samples, 91.04%)</title><rect x="115.8" y="261" width="1074.2" height="15.0" fill="rgb(226,100,24)" rx="2" ry="2" />
<text  x="118.78" y="271.5" >mc-worker</text>
</g>
<g >
<title>read@plt (37 samples, 0.04%)</title><rect x="1180.9" y="181" width="0.5" height="15.0" fill="rgb(218,60,14)" rx="2" ry="2" />
<text  x="1183.91" y="191.5" ></text>
</g>
<g >
<title>event_callback_activate_nolock_ (10 samples, 0.01%)</title><rect x="1187.4" y="245" width="0.1" height="15.0" fill="rgb(222,79,19)" rx="2" ry="2" />
<text  x="1190.37" y="255.5" ></text>
</g>
<g >
<title>resp_reset (13 samples, 0.01%)</title><rect x="633.2" y="133" width="0.2" height="15.0" fill="rgb(211,27,6)" rx="2" ry="2" />
<text  x="636.24" y="143.5" ></text>
</g>
<g >
<title>event_handler (28 samples, 0.03%)</title><rect x="1187.5" y="245" width="0.3" height="15.0" fill="rgb(231,120,28)" rx="2" ry="2" />
<text  x="1190.49" y="255.5" ></text>
</g>
<g >
<title>MurmurHash3_x86_32 (1,159 samples, 1.22%)</title><rect x="130.6" y="133" width="14.4" height="15.0" fill="rgb(226,96,23)" rx="2" ry="2" />
<text  x="133.59" y="143.5" ></text>
</g>
<g >
<title>MurmurHash3_x86_32 (18 samples, 0.02%)</title><rect x="152.6" y="133" width="0.2" height="15.0" fill="rgb(226,96,23)" rx="2" ry="2" />
<text  x="155.56" y="143.5" ></text>
</g>
<g >
<title>do_slabs_free (14 samples, 0.01%)</title><rect x="542.2" y="85" width="0.1" height="15.0" fill="rgb(229,113,27)" rx="2" ry="2" />
<text  x="545.17" y="95.5" ></text>
</g>
<g >
<title>write_bin_error (52 samples, 0.05%)</title><rect x="1171.4" y="133" width="0.6" height="15.0" fill="rgb(250,207,49)" rx="2" ry="2" />
<text  x="1174.38" y="143.5" ></text>
</g>
<g >
<title>dispatch_bin_command (43,342 samples, 45.56%)</title><rect x="642.4" y="181" width="537.6" height="15.0" fill="rgb(238,152,36)" rx="2" ry="2" />
<text  x="645.40" y="191.5" >dispatch_bin_command</text>
</g>
<g >
<title>MurmurHash3_x86_32 (16 samples, 0.02%)</title><rect x="655.9" y="133" width="0.2" height="15.0" fill="rgb(226,96,23)" rx="2" ry="2" />
<text  x="658.92" y="143.5" ></text>
</g>
<g >
<title>do_store_item (32,161 samples, 33.81%)</title><rect x="154.4" y="133" width="398.9" height="15.0" fill="rgb(240,164,39)" rx="2" ry="2" />
<text  x="157.40" y="143.5" >do_store_item</text>
</g>
<g >
<title>event_callback_activate_nolock_ (22 samples, 0.02%)</title><rect x="1183.5" y="197" width="0.3" height="15.0" fill="rgb(222,79,19)" rx="2" ry="2" />
<text  x="1186.49" y="207.5" ></text>
</g>
<g >
<title>rotl32 (54 samples, 0.06%)</title><rect x="145.7" y="133" width="0.7" height="15.0" fill="rgb(210,25,6)" rx="2" ry="2" />
<text  x="148.74" y="143.5" ></text>
</g>
<g >
<title>do_item_remove (468 samples, 0.49%)</title><rect x="539.9" y="117" width="5.8" height="15.0" fill="rgb(214,42,10)" rx="2" ry="2" />
<text  x="542.93" y="127.5" ></text>
</g>
<g >
<title>do_slabs_free (85 samples, 0.09%)</title><rect x="1178.7" y="37" width="1.0" height="15.0" fill="rgb(229,113,27)" rx="2" ry="2" />
<text  x="1181.69" y="47.5" ></text>
</g>
<g >
<title>pthread_mutex_lock@@GLIBC_2.2.5 (54 samples, 0.06%)</title><rect x="548.5" y="69" width="0.6" height="15.0" fill="rgb(244,179,42)" rx="2" ry="2" />
<text  x="551.45" y="79.5" ></text>
</g>
<g >
<title>slabs_alloc (164 samples, 0.17%)</title><rect x="1177.7" y="101" width="2.0" height="15.0" fill="rgb(228,106,25)" rx="2" ry="2" />
<text  x="1180.71" y="111.5" ></text>
</g>
<g >
<title>resp_add_iov (367 samples, 0.39%)</title><rect x="623.4" y="117" width="4.5" height="15.0" fill="rgb(254,228,54)" rx="2" ry="2" />
<text  x="626.36" y="127.5" ></text>
</g>
<g >
<title>pthread_mutex_lock@@GLIBC_2.2.5 (5,269 samples, 5.54%)</title><rect x="1040.6" y="133" width="65.3" height="15.0" fill="rgb(244,179,42)" rx="2" ry="2" />
<text  x="1043.58" y="143.5" >pthread..</text>
</g>
<g >
<title>item_is_flushed (34 samples, 0.04%)</title><rect x="546.2" y="117" width="0.4" height="15.0" fill="rgb(205,1,0)" rx="2" ry="2" />
<text  x="549.16" y="127.5" ></text>
</g>
<g >
<title>add_bin_header (24 samples, 0.03%)</title><rect x="121.7" y="149" width="0.3" height="15.0" fill="rgb(209,22,5)" rx="2" ry="2" />
<text  x="124.74" y="159.5" ></text>
</g>
<g >
<title>do_slabs_alloc (164 samples, 0.17%)</title><rect x="1177.7" y="85" width="2.0" height="15.0" fill="rgb(251,213,51)" rx="2" ry="2" />
<text  x="1180.71" y="95.5" ></text>
</g>
<g >
<title>slabs_free (90 samples, 0.09%)</title><rect x="544.6" y="85" width="1.1" height="15.0" fill="rgb(206,6,1)" rx="2" ry="2" />
<text  x="547.57" y="95.5" ></text>
</g>
<g >
<title>do_store_item (525 samples, 0.55%)</title><rect x="122.3" y="149" width="6.5" height="15.0" fill="rgb(240,164,39)" rx="2" ry="2" />
<text  x="125.32" y="159.5" ></text>
</g>
<g >
<title>[libevent-2.1.so.7.0.1] (85,974 samples, 90.38%)</title><rect x="115.8" y="245" width="1066.4" height="15.0" fill="rgb(230,119,28)" rx="2" ry="2" />
<text  x="118.78" y="255.5" >[libevent-2.1.so.7.0.1]</text>
</g>
<g >
<title>item_get (42,133 samples, 44.29%)</title><rect x="646.4" y="149" width="522.7" height="15.0" fill="rgb(248,200,47)" rx="2" ry="2" />
<text  x="649.44" y="159.5" >item_get</text>
</g>
<g >
<title>lru_pull_tail (1,871 samples, 1.97%)</title><rect x="92.6" y="197" width="23.2" height="15.0" fill="rgb(219,67,16)" rx="2" ry="2" />
<text  x="95.57" y="207.5" >l..</text>
</g>
<g >
<title>item_link_q (12 samples, 0.01%)</title><rect x="538.4" y="101" width="0.1" height="15.0" fill="rgb(244,180,43)" rx="2" ry="2" />
<text  x="541.39" y="111.5" ></text>
</g>
<g >
<title>do_item_link (246 samples, 0.26%)</title><rect x="547.5" y="85" width="3.1" height="15.0" fill="rgb(211,28,6)" rx="2" ry="2" />
<text  x="550.51" y="95.5" ></text>
</g>
<g >
<title>memcmp@plt (17 samples, 0.02%)</title><rect x="1033.6" y="117" width="0.2" height="15.0" fill="rgb(251,214,51)" rx="2" ry="2" />
<text  x="1036.60" y="127.5" ></text>
</g>
<g >
<title>do_item_replace (31 samples, 0.03%)</title><rect x="545.7" y="117" width="0.4" height="15.0" fill="rgb(210,24,5)" rx="2" ry="2" />
<text  x="548.74" y="127.5" ></text>
</g>
<g >
<title>item_replace (533 samples, 0.56%)</title><rect x="546.6" y="117" width="6.6" height="15.0" fill="rgb(237,147,35)" rx="2" ry="2" />
<text  x="549.58" y="127.5" ></text>
</g>
<g >
<title>mc-lrumaint (8,528 samples, 8.96%)</title><rect x="10.0" y="261" width="105.8" height="15.0" fill="rgb(220,70,16)" rx="2" ry="2" />
<text  x="13.00" y="271.5" >mc-lrumaint</text>
</g>
<g >
<title>store_item (22 samples, 0.02%)</title><rect x="633.5" y="165" width="0.3" height="15.0" fill="rgb(217,57,13)" rx="2" ry="2" />
<text  x="636.55" y="175.5" ></text>
</g>
<g >
<title>complete_nread (41,490 samples, 43.61%)</title><rect x="119.3" y="197" width="514.7" height="15.0" fill="rgb(241,168,40)" rx="2" ry="2" />
<text  x="122.31" y="207.5" >complete_nread</text>
</g>
<g >
<title>pthread_mutex_lock@@GLIBC_2.2.5 (58 samples, 0.06%)</title><rect x="147.2" y="149" width="0.7" height="15.0" fill="rgb(244,179,42)" rx="2" ry="2" />
<text  x="150.23" y="159.5" ></text>
</g>
<g >
<title>[unknown] (1,897 samples, 1.99%)</title><rect x="10.0" y="245" width="23.5" height="15.0" fill="rgb(210,24,5)" rx="2" ry="2" />
<text  x="13.00" y="255.5" >[..</text>
</g>
<g >
<title>item_unlock (24 samples, 0.03%)</title><rect x="553.8" y="133" width="0.2" height="15.0" fill="rgb(253,224,53)" rx="2" ry="2" />
<text  x="556.75" y="143.5" ></text>
</g>
<g >
<title>resp_finish (31 samples, 0.03%)</title><rect x="641.8" y="181" width="0.4" height="15.0" fill="rgb(253,224,53)" rx="2" ry="2" />
<text  x="644.83" y="191.5" ></text>
</g>
<g >
<title>item_unlock (66 samples, 0.07%)</title><rect x="146.4" y="149" width="0.8" height="15.0" fill="rgb(253,224,53)" rx="2" ry="2" />
<text  x="149.41" y="159.5" ></text>
</g>
<g >
<title>pthread_mutex_lock@@GLIBC_2.2.5 (3,599 samples, 3.78%)</title><rect x="554.0" y="133" width="44.7" height="15.0" fill="rgb(244,179,42)" rx="2" ry="2" />
<text  x="557.05" y="143.5" >pthr..</text>
</g>
<g >
<title>write_bin_miss_response (74 samples, 0.08%)</title><rect x="1171.1" y="149" width="0.9" height="15.0" fill="rgb(218,63,15)" rx="2" ry="2" />
<text  x="1174.11" y="159.5" ></text>
</g>
<g >
<title>pthread_mutex_unlock@@GLIBC_2.2.5 (9 samples, 0.01%)</title><rect x="633.4" y="165" width="0.1" height="15.0" fill="rgb(227,104,24)" rx="2" ry="2" />
<text  x="636.44" y="175.5" ></text>
</g>
<g >
<title>__GI___pthread_enable_asynccancel (14 samples, 0.01%)</title><rect x="1183.3" y="197" width="0.1" height="15.0" fill="rgb(240,165,39)" rx="2" ry="2" />
<text  x="1186.26" y="207.5" ></text>
</g>
<g >
<title>htonl (17 samples, 0.02%)</title><rect x="634.3" y="197" width="0.2" height="15.0" fill="rgb(217,55,13)" rx="2" ry="2" />
<text  x="637.30" y="207.5" ></text>
</g>
<g >
<title>[[vdso]] (21 samples, 0.02%)</title><rect x="1182.2" y="229" width="0.3" height="15.0" fill="rgb(218,60,14)" rx="2" ry="2" />
<text  x="1185.22" y="239.5" ></text>
</g>
<g >
<title>lru_maintainer_crawler_check (2,083 samples, 2.19%)</title><rect x="62.7" y="213" width="25.9" height="15.0" fill="rgb(206,8,2)" rx="2" ry="2" />
<text  x="65.73" y="223.5" >l..</text>
</g>
<g >
<title>item_lock (34 samples, 0.04%)</title><rect x="553.3" y="133" width="0.5" height="15.0" fill="rgb(220,69,16)" rx="2" ry="2" />
<text  x="556.33" y="143.5" ></text>
</g>
<g >
<title>split_slab_page_into_freelist (85 samples, 0.09%)</title><rect x="1178.7" y="53" width="1.0" height="15.0" fill="rgb(225,93,22)" rx="2" ry="2" />
<text  x="1181.69" y="63.5" ></text>
</g>
<g >
<title>lru_maintainer_juggle (2,194 samples, 2.31%)</title><rect x="88.6" y="213" width="27.2" height="15.0" fill="rgb(251,214,51)" rx="2" ry="2" />
<text  x="91.57" y="223.5" >l..</text>
</g>
<g >
<title>write_bin_response (11 samples, 0.01%)</title><rect x="633.8" y="165" width="0.2" height="15.0" fill="rgb(250,210,50)" rx="2" ry="2" />
<text  x="636.82" y="175.5" ></text>
</g>
<g >
<title>item_lock (62 samples, 0.07%)</title><rect x="1033.8" y="133" width="0.8" height="15.0" fill="rgb(220,69,16)" rx="2" ry="2" />
<text  x="1036.82" y="143.5" ></text>
</g>
<g >
<title>event_handler (85,953 samples, 90.35%)</title><rect x="116.0" y="229" width="1066.2" height="15.0" fill="rgb(231,120,28)" rx="2" ry="2" />
<text  x="119.04" y="239.5" >event_handler</text>
</g>
<g >
<title>clock_nanosleep@GLIBC_2.2.5 (1,036 samples, 1.09%)</title><rect x="33.5" y="245" width="12.9" height="15.0" fill="rgb(240,165,39)" rx="2" ry="2" />
<text  x="36.53" y="255.5" ></text>
</g>
<g >
<title>htonl@plt (12 samples, 0.01%)</title><rect x="632.4" y="133" width="0.2" height="15.0" fill="rgb(233,129,30)" rx="2" ry="2" />
<text  x="635.43" y="143.5" ></text>
</g>
<g >
<title>do_item_link_q (73 samples, 0.08%)</title><rect x="547.5" y="53" width="1.0" height="15.0" fill="rgb(217,57,13)" rx="2" ry="2" />
<text  x="550.55" y="63.5" ></text>
</g>
<g >
<title>[unknown] (14 samples, 0.01%)</title><rect x="533.9" y="85" width="0.2" height="15.0" fill="rgb(210,24,5)" rx="2" ry="2" />
<text  x="536.92" y="95.5" ></text>
</g>
<g >
<title>assoc_find (797 samples, 0.84%)</title><rect x="656.1" y="133" width="9.9" height="15.0" fill="rgb(237,147,35)" rx="2" ry="2" />
<text  x="659.12" y="143.5" ></text>
</g>
<g >
<title>pthread_mutex_unlock@plt (13 samples, 0.01%)</title><rect x="602.0" y="133" width="0.2" height="15.0" fill="rgb(247,194,46)" rx="2" ry="2" />
<text  x="605.03" y="143.5" ></text>
</g>
<g >
<title>rotl32 (101 samples, 0.11%)</title><rect x="143.7" y="117" width="1.3" height="15.0" fill="rgb(210,25,6)" rx="2" ry="2" />
<text  x="146.72" y="127.5" ></text>
</g>
<g >
<title>conn_set_state (17 samples, 0.02%)</title><rect x="632.2" y="133" width="0.2" height="15.0" fill="rgb(243,175,41)" rx="2" ry="2" />
<text  x="635.22" y="143.5" ></text>
</g>
<g >
<title>start_thread (5,595 samples, 5.88%)</title><rect x="46.4" y="245" width="69.4" height="15.0" fill="rgb(212,34,8)" rx="2" ry="2" />
<text  x="49.38" y="255.5" >start_t..</text>
</g>
<g >
<title>pthread_mutex_unlock@@GLIBC_2.2.5 (31 samples, 0.03%)</title><rect x="145.4" y="133" width="0.3" height="15.0" fill="rgb(227,104,24)" rx="2" ry="2" />
<text  x="148.35" y="143.5" ></text>
</g>
<g >
<title>write_bin_response (2,511 samples, 2.64%)</title><rect x="602.3" y="149" width="31.1" height="15.0" fill="rgb(250,210,50)" rx="2" ry="2" />
<text  x="605.25" y="159.5" >wr..</text>
</g>
<g >
<title>item_free (380 samples, 0.40%)</title><rect x="541.0" y="101" width="4.7" height="15.0" fill="rgb(215,47,11)" rx="2" ry="2" />
<text  x="543.97" y="111.5" ></text>
</g>
<g >
<title>do_item_get (128 samples, 0.13%)</title><rect x="152.8" y="133" width="1.6" height="15.0" fill="rgb(221,77,18)" rx="2" ry="2" />
<text  x="155.78" y="143.5" ></text>
</g>
<g >
<title>resp_finish (61 samples, 0.06%)</title><rect x="637.0" y="165" width="0.8" height="15.0" fill="rgb(253,224,53)" rx="2" ry="2" />
<text  x="640.01" y="175.5" ></text>
</g>
<g >
<title>_transmit_pre (327 samples, 0.34%)</title><rect x="637.8" y="181" width="4.0" height="15.0" fill="rgb(226,97,23)" rx="2" ry="2" />
<text  x="640.76" y="191.5" ></text>
</g>
<g >
<title>add_bin_header (40 samples, 0.04%)</title><rect x="1171.4" y="117" width="0.5" height="15.0" fill="rgb(209,22,5)" rx="2" ry="2" />
<text  x="1174.38" y="127.5" ></text>
</g>
<g >
<title>complete_nread_binary (41,490 samples, 43.61%)</title><rect x="119.3" y="181" width="514.7" height="15.0" fill="rgb(211,29,6)" rx="2" ry="2" />
<text  x="122.31" y="191.5" >complete_nread_binary</text>
</g>
<g >
<title>do_slabs_free (67 samples, 0.07%)</title><rect x="544.9" y="69" width="0.8" height="15.0" fill="rgb(229,113,27)" rx="2" ry="2" />
<text  x="547.86" y="79.5" ></text>
</g>
<g >
<title>resp_allocate (22 samples, 0.02%)</title><rect x="1180.1" y="165" width="0.2" height="15.0" fill="rgb(237,150,35)" rx="2" ry="2" />
<text  x="1183.05" y="175.5" ></text>
</g>
<g >
<title>pthread_mutex_lock@@GLIBC_2.2.5 (76 samples, 0.08%)</title><rect x="551.8" y="69" width="0.9" height="15.0" fill="rgb(244,179,42)" rx="2" ry="2" />
<text  x="554.75" y="79.5" ></text>
</g>
<g >
<title>STATS_LOCK (35 samples, 0.04%)</title><rect x="547.1" y="85" width="0.4" height="15.0" fill="rgb(253,224,53)" rx="2" ry="2" />
<text  x="550.08" y="95.5" ></text>
</g>
<g >
<title>try_read_network (34 samples, 0.04%)</title><rect x="1183.8" y="197" width="0.4" height="15.0" fill="rgb(231,121,29)" rx="2" ry="2" />
<text  x="1186.79" y="207.5" ></text>
</g>
<g >
<title>[libevent-2.1.so.7.0.1] (139 samples, 0.15%)</title><rect x="1182.5" y="229" width="1.7" height="15.0" fill="rgb(230,119,28)" rx="2" ry="2" />
<text  x="1185.48" y="239.5" ></text>
</g>
<g >
<title>try_read_network (84 samples, 0.09%)</title><rect x="1180.3" y="197" width="1.1" height="15.0" fill="rgb(231,121,29)" rx="2" ry="2" />
<text  x="1183.32" y="207.5" ></text>
</g>
<g >
<title>transmit (40 samples, 0.04%)</title><rect x="1181.5" y="213" width="0.5" height="15.0" fill="rgb(215,50,12)" rx="2" ry="2" />
<text  x="1184.52" y="223.5" ></text>
</g>
<g >
<title>memcmp@plt (236 samples, 0.25%)</title><rect x="535.3" y="101" width="3.0" height="15.0" fill="rgb(251,214,51)" rx="2" ry="2" />
<text  x="538.34" y="111.5" ></text>
</g>
<g >
<title>__memcmp_avx2_movbe (8,873 samples, 9.33%)</title><rect x="175.4" y="101" width="110.1" height="15.0" fill="rgb(224,91,21)" rx="2" ry="2" />
<text  x="178.42" y="111.5" >__memcmp_avx2..</text>
</g>
<g >
<title>__memcmp_avx2_movbe (11,460 samples, 12.05%)</title><rect x="679.9" y="117" width="142.2" height="15.0" fill="rgb(224,91,21)" rx="2" ry="2" />
<text  x="682.93" y="127.5" >__memcmp_avx2_movbe</text>
</g>
<g >
<title>resp_start (24 samples, 0.03%)</title><rect x="1180.0" y="181" width="0.3" height="15.0" fill="rgb(239,160,38)" rx="2" ry="2" />
<text  x="1183.03" y="191.5" ></text>
</g>
<g >
<title>__memset_avx2_unaligned_erms (15 samples, 0.02%)</title><rect x="119.1" y="197" width="0.2" height="15.0" fill="rgb(223,84,20)" rx="2" ry="2" />
<text  x="122.11" y="207.5" ></text>
</g>
<g >
<title>add_bin_header (2,328 samples, 2.45%)</title><rect x="603.3" y="133" width="28.9" height="15.0" fill="rgb(209,22,5)" rx="2" ry="2" />
<text  x="606.34" y="143.5" >ad..</text>
</g>
<g >
<title>pthread_mutex_trylock@@GLIBC_2.34 (1,897 samples, 1.99%)</title><rect x="10.0" y="229" width="23.5" height="15.0" fill="rgb(223,86,20)" rx="2" ry="2" />
<text  x="13.00" y="239.5" >p..</text>
</g>
<g >
<title>assoc_find (223 samples, 0.23%)</title><rect x="166.5" y="117" width="2.8" height="15.0" fill="rgb(237,147,35)" rx="2" ry="2" />
<text  x="169.49" y="127.5" ></text>
</g>
<g >
<title>do_item_unlink (210 samples, 0.22%)</title><rect x="550.6" y="85" width="2.6" height="15.0" fill="rgb(244,182,43)" rx="2" ry="2" />
<text  x="553.56" y="95.5" ></text>
</g>
<g >
<title>pthread_mutex_unlock@@GLIBC_2.2.5 (12 samples, 0.01%)</title><rect x="1179.9" y="165" width="0.1" height="15.0" fill="rgb(227,104,24)" rx="2" ry="2" />
<text  x="1182.88" y="175.5" ></text>
</g>
<g >
<title>_hashitem_before (12 samples, 0.01%)</title><rect x="550.6" y="53" width="0.2" height="15.0" fill="rgb(238,153,36)" rx="2" ry="2" />
<text  x="553.65" y="63.5" ></text>
</g>
<g >
<title>pthread_mutex_unlock@@GLIBC_2.2.5 (269 samples, 0.28%)</title><rect x="598.7" y="133" width="3.3" height="15.0" fill="rgb(227,104,24)" rx="2" ry="2" />
<text  x="601.69" y="143.5" ></text>
</g>
<g >
<title>worker_libevent (11 samples, 0.01%)</title><rect x="1189.3" y="229" width="0.1" height="15.0" fill="rgb(211,29,7)" rx="2" ry="2" />
<text  x="1192.29" y="239.5" ></text>
</g>
<g >
<title>[unknown] (138 samples, 0.15%)</title><rect x="1182.5" y="213" width="1.7" height="15.0" fill="rgb(210,24,5)" rx="2" ry="2" />
<text  x="1185.50" y="223.5" ></text>
</g>
<g >
<title>sysmalloc (46 samples, 0.05%)</title><rect x="1189.4" y="245" width="0.6" height="15.0" fill="rgb(213,38,9)" rx="2" ry="2" />
<text  x="1192.43" y="255.5" ></text>
</g>
<g >
<title>item_get (25 samples, 0.03%)</title><rect x="642.7" y="165" width="0.3" height="15.0" fill="rgb(248,200,47)" rx="2" ry="2" />
<text  x="645.71" y="175.5" ></text>
</g>
<g >
<title>pthread_mutex_unlock@@GLIBC_2.2.5 (101 samples, 0.11%)</title><rect x="543.2" y="85" width="1.3" height="15.0" fill="rgb(227,104,24)" rx="2" ry="2" />
<text  x="546.24" y="95.5" ></text>
</g>
<g >
<title>MurmurHash3_x86_32 (1,116 samples, 1.17%)</title><rect x="101.9" y="181" width="13.9" height="15.0" fill="rgb(226,96,23)" rx="2" ry="2" />
<text  x="104.94" y="191.5" ></text>
</g>
<g >
<title>process_bin_update (630 samples, 0.66%)</title><rect x="1172.0" y="165" width="7.8" height="15.0" fill="rgb(205,3,0)" rx="2" ry="2" />
<text  x="1175.03" y="175.5" ></text>
</g>
<g >
<title>_transmit_post (61 samples, 0.06%)</title><rect x="637.0" y="181" width="0.8" height="15.0" fill="rgb(205,3,0)" rx="2" ry="2" />
<text  x="640.01" y="191.5" ></text>
</g>
<g >
<title>assoc_find (20,042 samples, 21.07%)</title><rect x="285.5" y="101" width="248.6" height="15.0" fill="rgb(237,147,35)" rx="2" ry="2" />
<text  x="288.49" y="111.5" >assoc_find</text>
</g>
<g >
<title>all (95,129 samples, 100%)</title><rect x="10.0" y="277" width="1180.0" height="15.0" fill="rgb(213,39,9)" rx="2" ry="2" />
<text  x="13.00" y="287.5" ></text>
</g>
<g >
<title>item_unlock (483 samples, 0.51%)</title><rect x="1034.6" y="133" width="6.0" height="15.0" fill="rgb(253,224,53)" rx="2" ry="2" />
<text  x="1037.59" y="143.5" ></text>
</g>
<g >
<title>__memmove_avx_unaligned_erms (10 samples, 0.01%)</title><rect x="116.0" y="213" width="0.2" height="15.0" fill="rgb(205,0,0)" rx="2" ry="2" />
<text  x="119.04" y="223.5" ></text>
</g>
<g >
<title>pthread_mutex_unlock@@GLIBC_2.2.5 (4,911 samples, 5.16%)</title><rect x="1105.9" y="133" width="61.0" height="15.0" fill="rgb(227,104,24)" rx="2" ry="2" />
<text  x="1108.95" y="143.5" >pthrea..</text>
</g>
<g >
<title>complete_update_bin (41,445 samples, 43.57%)</title><rect x="119.3" y="165" width="514.1" height="15.0" fill="rgb(224,89,21)" rx="2" ry="2" />
<text  x="122.31" y="175.5" >complete_update_bin</text>
</g>
<g >
<title>pthread_mutex_unlock@@GLIBC_2.2.5 (427 samples, 0.45%)</title><rect x="1172.4" y="101" width="5.3" height="15.0" fill="rgb(227,104,24)" rx="2" ry="2" />
<text  x="1175.41" y="111.5" ></text>
</g>
<g >
<title>do_item_link_q (12 samples, 0.01%)</title><rect x="538.4" y="85" width="0.1" height="15.0" fill="rgb(217,57,13)" rx="2" ry="2" />
<text  x="541.39" y="95.5" ></text>
</g>
<g >
<title>storage_delete (11 samples, 0.01%)</title><rect x="553.2" y="117" width="0.1" height="15.0" fill="rgb(209,20,4)" rx="2" ry="2" />
<text  x="556.19" y="127.5" ></text>
</g>
<g >
<title>evmap_io_active_ (114 samples, 0.12%)</title><rect x="1187.8" y="245" width="1.5" height="15.0" fill="rgb(249,205,49)" rx="2" ry="2" />
<text  x="1190.84" y="255.5" ></text>
</g>
<g >
<title>item_remove (61 samples, 0.06%)</title><rect x="637.0" y="149" width="0.8" height="15.0" fill="rgb(240,165,39)" rx="2" ry="2" />
<text  x="640.01" y="159.5" ></text>
</g>
<g >
<title>item_lock (20 samples, 0.02%)</title><rect x="128.8" y="149" width="0.3" height="15.0" fill="rgb(220,69,16)" rx="2" ry="2" />
<text  x="131.83" y="159.5" ></text>
</g>
<g >
<title>item_remove (1,397 samples, 1.47%)</title><rect x="129.1" y="149" width="17.3" height="15.0" fill="rgb(240,165,39)" rx="2" ry="2" />
<text  x="132.08" y="159.5" ></text>
</g>
<g >
<title>do_cache_free (11 samples, 0.01%)</title><rect x="634.2" y="197" width="0.1" height="15.0" fill="rgb(242,174,41)" rx="2" ry="2" />
<text  x="637.17" y="207.5" ></text>
</g>
<g >
<title>item_is_flushed (101 samples, 0.11%)</title><rect x="534.1" y="101" width="1.2" height="15.0" fill="rgb(205,1,0)" rx="2" ry="2" />
<text  x="537.09" y="111.5" ></text>
</g>
<g >
<title>do_item_unlink_q (68 samples, 0.07%)</title><rect x="550.9" y="53" width="0.9" height="15.0" fill="rgb(251,212,50)" rx="2" ry="2" />
<text  x="553.91" y="63.5" ></text>
</g>
<g >
<title>drive_machine (85,872 samples, 90.27%)</title><rect x="116.2" y="213" width="1065.2" height="15.0" fill="rgb(241,165,39)" rx="2" ry="2" />
<text  x="119.19" y="223.5" >drive_machine</text>
</g>
</g>
</svg>
