<?xml version="1.0" standalone="no"?>
<!DOCTYPE svg PUBLIC "-//W3C//DTD SVG 1.1//EN" "http://www.w3.org/Graphics/SVG/1.1/DTD/svg11.dtd">
<svg version="1.1" width="1200" height="310" onload="init(evt)" viewBox="0 0 1200 310" xmlns="http://www.w3.org/2000/svg" xmlns:xlink="http://www.w3.org/1999/xlink">
<!-- Flame graph stack visualization. See https://github.com/brendangregg/FlameGraph for latest version, and http://www.brendangregg.com/flamegraphs.html for examples. -->
<!-- NOTES:  -->
<defs>
	<linearGradient id="background" y1="0" y2="1" x1="0" x2="0" >
		<stop stop-color="#eeeeee" offset="5%" />
		<stop stop-color="#eeeeb0" offset="95%" />
	</linearGradient>
</defs>
<style type="text/css">
	text { font-family:Verdana; font-size:12px; fill:rgb(0,0,0); }
	#search, #ignorecase { opacity:0.1; cursor:pointer; }
	#search:hover, #search.show, #ignorecase:hover, #ignorecase.show { opacity:1; }
	#subtitle { text-anchor:middle; font-color:rgb(160,160,160); }
	#title { text-anchor:middle; font-size:17px}
	#unzoom { cursor:pointer; }
	#frames > *:hover { stroke:black; stroke-width:0.5; cursor:pointer; }
	.hide { display:none; }
	.parent { opacity:0.5; }
</style>
<script type="text/ecmascript">
<![CDATA[
	"use strict";
	var details, searchbtn, unzoombtn, matchedtxt, svg, searching, currentSearchTerm, ignorecase, ignorecaseBtn;
	function init(evt) {
		details = document.getElementById("details").firstChild;
		searchbtn = document.getElementById("search");
		ignorecaseBtn = document.getElementById("ignorecase");
		unzoombtn = document.getElementById("unzoom");
		matchedtxt = document.getElementById("matched");
		svg = document.getElementsByTagName("svg")[0];
		searching = 0;
		currentSearchTerm = null;

		// use GET parameters to restore a flamegraphs state.
		var params = get_params();
		if (params.x && params.y)
			zoom(find_group(document.querySelector('[x="' + params.x + '"][y="' + params.y + '"]')));
                if (params.s) search(params.s);
	}

	// event listeners
	window.addEventListener("click", function(e) {
		var target = find_group(e.target);
		if (target) {
			if (target.nodeName == "a") {
				if (e.ctrlKey === false) return;
				e.preventDefault();
			}
			if (target.classList.contains("parent")) unzoom(true);
			zoom(target);
			if (!document.querySelector('.parent')) {
				// we have basically done a clearzoom so clear the url
				var params = get_params();
				if (params.x) delete params.x;
				if (params.y) delete params.y;
				history.replaceState(null, null, parse_params(params));
				unzoombtn.classList.add("hide");
				return;
			}

			// set parameters for zoom state
			var el = target.querySelector("rect");
			if (el && el.attributes && el.attributes.y && el.attributes._orig_x) {
				var params = get_params()
				params.x = el.attributes._orig_x.value;
				params.y = el.attributes.y.value;
				history.replaceState(null, null, parse_params(params));
			}
		}
		else if (e.target.id == "unzoom") clearzoom();
		else if (e.target.id == "search") search_prompt();
		else if (e.target.id == "ignorecase") toggle_ignorecase();
	}, false)

	// mouse-over for info
	// show
	window.addEventListener("mouseover", function(e) {
		var target = find_group(e.target);
		if (target) details.nodeValue = "Function: " + g_to_text(target);
	}, false)

	// clear
	window.addEventListener("mouseout", function(e) {
		var target = find_group(e.target);
		if (target) details.nodeValue = ' ';
	}, false)

	// ctrl-F for search
	// ctrl-I to toggle case-sensitive search
	window.addEventListener("keydown",function (e) {
		if (e.keyCode === 114 || (e.ctrlKey && e.keyCode === 70)) {
			e.preventDefault();
			search_prompt();
		}
		else if (e.ctrlKey && e.keyCode === 73) {
			e.preventDefault();
			toggle_ignorecase();
		}
	}, false)

	// functions
	function get_params() {
		var params = {};
		var paramsarr = window.location.search.substr(1).split('&');
		for (var i = 0; i < paramsarr.length; ++i) {
			var tmp = paramsarr[i].split("=");
			if (!tmp[0] || !tmp[1]) continue;
			params[tmp[0]]  = decodeURIComponent(tmp[1]);
		}
		return params;
	}
	function parse_params(params) {
		var uri = "?";
		for (var key in params) {
			uri += key + '=' + encodeURIComponent(params[key]) + '&';
		}
		if (uri.slice(-1) == "&")
			uri = uri.substring(0, uri.length - 1);
		if (uri == '?')
			uri = window.location.href.split('?')[0];
		return uri;
	}
	function find_child(node, selector) {
		var children = node.querySelectorAll(selector);
		if (children.length) return children[0];
	}
	function find_group(node) {
		var parent = node.parentElement;
		if (!parent) return;
		if (parent.id == "frames") return node;
		return find_group(parent);
	}
	function orig_save(e, attr, val) {
		if (e.attributes["_orig_" + attr] != undefined) return;
		if (e.attributes[attr] == undefined) return;
		if (val == undefined) val = e.attributes[attr].value;
		e.setAttribute("_orig_" + attr, val);
	}
	function orig_load(e, attr) {
		if (e.attributes["_orig_"+attr] == undefined) return;
		e.attributes[attr].value = e.attributes["_orig_" + attr].value;
		e.removeAttribute("_orig_"+attr);
	}
	function g_to_text(e) {
		var text = find_child(e, "title").firstChild.nodeValue;
		return (text)
	}
	function g_to_func(e) {
		var func = g_to_text(e);
		// if there's any manipulation we want to do to the function
		// name before it's searched, do it here before returning.
		return (func);
	}
	function update_text(e) {
		var r = find_child(e, "rect");
		var t = find_child(e, "text");
		var w = parseFloat(r.attributes.width.value) -3;
		var txt = find_child(e, "title").textContent.replace(/\([^(]*\)$/,"");
		t.attributes.x.value = parseFloat(r.attributes.x.value) + 3;

		// Smaller than this size won't fit anything
		if (w < 2 * 12 * 0.59) {
			t.textContent = "";
			return;
		}

		t.textContent = txt;
		var sl = t.getSubStringLength(0, txt.length);
		// check if only whitespace or if we can fit the entire string into width w
		if (/^ *$/.test(txt) || sl < w)
			return;

		// this isn't perfect, but gives a good starting point
		// and avoids calling getSubStringLength too often
		var start = Math.floor((w/sl) * txt.length);
		for (var x = start; x > 0; x = x-2) {
			if (t.getSubStringLength(0, x + 2) <= w) {
				t.textContent = txt.substring(0, x) + "..";
				return;
			}
		}
		t.textContent = "";
	}

	// zoom
	function zoom_reset(e) {
		if (e.attributes != undefined) {
			orig_load(e, "x");
			orig_load(e, "width");
		}
		if (e.childNodes == undefined) return;
		for (var i = 0, c = e.childNodes; i < c.length; i++) {
			zoom_reset(c[i]);
		}
	}
	function zoom_child(e, x, ratio) {
		if (e.attributes != undefined) {
			if (e.attributes.x != undefined) {
				orig_save(e, "x");
				e.attributes.x.value = (parseFloat(e.attributes.x.value) - x - 10) * ratio + 10;
				if (e.tagName == "text")
					e.attributes.x.value = find_child(e.parentNode, "rect[x]").attributes.x.value + 3;
			}
			if (e.attributes.width != undefined) {
				orig_save(e, "width");
				e.attributes.width.value = parseFloat(e.attributes.width.value) * ratio;
			}
		}

		if (e.childNodes == undefined) return;
		for (var i = 0, c = e.childNodes; i < c.length; i++) {
			zoom_child(c[i], x - 10, ratio);
		}
	}
	function zoom_parent(e) {
		if (e.attributes) {
			if (e.attributes.x != undefined) {
				orig_save(e, "x");
				e.attributes.x.value = 10;
			}
			if (e.attributes.width != undefined) {
				orig_save(e, "width");
				e.attributes.width.value = parseInt(svg.width.baseVal.value) - (10 * 2);
			}
		}
		if (e.childNodes == undefined) return;
		for (var i = 0, c = e.childNodes; i < c.length; i++) {
			zoom_parent(c[i]);
		}
	}
	function zoom(node) {
		var attr = find_child(node, "rect").attributes;
		var width = parseFloat(attr.width.value);
		var xmin = parseFloat(attr.x.value);
		var xmax = parseFloat(xmin + width);
		var ymin = parseFloat(attr.y.value);
		var ratio = (svg.width.baseVal.value - 2 * 10) / width;

		// XXX: Workaround for JavaScript float issues (fix me)
		var fudge = 0.0001;

		unzoombtn.classList.remove("hide");

		var el = document.getElementById("frames").children;
		for (var i = 0; i < el.length; i++) {
			var e = el[i];
			var a = find_child(e, "rect").attributes;
			var ex = parseFloat(a.x.value);
			var ew = parseFloat(a.width.value);
			var upstack;
			// Is it an ancestor
			if (0 == 0) {
				upstack = parseFloat(a.y.value) > ymin;
			} else {
				upstack = parseFloat(a.y.value) < ymin;
			}
			if (upstack) {
				// Direct ancestor
				if (ex <= xmin && (ex+ew+fudge) >= xmax) {
					e.classList.add("parent");
					zoom_parent(e);
					update_text(e);
				}
				// not in current path
				else
					e.classList.add("hide");
			}
			// Children maybe
			else {
				// no common path
				if (ex < xmin || ex + fudge >= xmax) {
					e.classList.add("hide");
				}
				else {
					zoom_child(e, xmin, ratio);
					update_text(e);
				}
			}
		}
		search();
	}
	function unzoom(dont_update_text) {
		unzoombtn.classList.add("hide");
		var el = document.getElementById("frames").children;
		for(var i = 0; i < el.length; i++) {
			el[i].classList.remove("parent");
			el[i].classList.remove("hide");
			zoom_reset(el[i]);
			if(!dont_update_text) update_text(el[i]);
		}
		search();
	}
	function clearzoom() {
		unzoom();

		// remove zoom state
		var params = get_params();
		if (params.x) delete params.x;
		if (params.y) delete params.y;
		history.replaceState(null, null, parse_params(params));
	}

	// search
	function toggle_ignorecase() {
		ignorecase = !ignorecase;
		if (ignorecase) {
			ignorecaseBtn.classList.add("show");
		} else {
			ignorecaseBtn.classList.remove("show");
		}
		reset_search();
		search();
	}
	function reset_search() {
		var el = document.querySelectorAll("#frames rect");
		for (var i = 0; i < el.length; i++) {
			orig_load(el[i], "fill")
		}
		var params = get_params();
		delete params.s;
		history.replaceState(null, null, parse_params(params));
	}
	function search_prompt() {
		if (!searching) {
			var term = prompt("Enter a search term (regexp " +
			    "allowed, eg: ^ext4_)"
			    + (ignorecase ? ", ignoring case" : "")
			    + "\nPress Ctrl-i to toggle case sensitivity", "");
			if (term != null) search(term);
		} else {
			reset_search();
			searching = 0;
			currentSearchTerm = null;
			searchbtn.classList.remove("show");
			searchbtn.firstChild.nodeValue = "Search"
			matchedtxt.classList.add("hide");
			matchedtxt.firstChild.nodeValue = ""
		}
	}
	function search(term) {
		if (term) currentSearchTerm = term;
		if (currentSearchTerm === null) return;

		var re = new RegExp(currentSearchTerm, ignorecase ? 'i' : '');
		var el = document.getElementById("frames").children;
		var matches = new Object();
		var maxwidth = 0;
		for (var i = 0; i < el.length; i++) {
			var e = el[i];
			var func = g_to_func(e);
			var rect = find_child(e, "rect");
			if (func == null || rect == null)
				continue;

			// Save max width. Only works as we have a root frame
			var w = parseFloat(rect.attributes.width.value);
			if (w > maxwidth)
				maxwidth = w;

			if (func.match(re)) {
				// highlight
				var x = parseFloat(rect.attributes.x.value);
				orig_save(rect, "fill");
				rect.attributes.fill.value = "rgb(230,0,230)";

				// remember matches
				if (matches[x] == undefined) {
					matches[x] = w;
				} else {
					if (w > matches[x]) {
						// overwrite with parent
						matches[x] = w;
					}
				}
				searching = 1;
			}
		}
		if (!searching)
			return;
		var params = get_params();
		params.s = currentSearchTerm;
		history.replaceState(null, null, parse_params(params));

		searchbtn.classList.add("show");
		searchbtn.firstChild.nodeValue = "Reset Search";

		// calculate percent matched, excluding vertical overlap
		var count = 0;
		var lastx = -1;
		var lastw = 0;
		var keys = Array();
		for (k in matches) {
			if (matches.hasOwnProperty(k))
				keys.push(k);
		}
		// sort the matched frames by their x location
		// ascending, then width descending
		keys.sort(function(a, b){
			return a - b;
		});
		// Step through frames saving only the biggest bottom-up frames
		// thanks to the sort order. This relies on the tree property
		// where children are always smaller than their parents.
		var fudge = 0.0001;	// JavaScript floating point
		for (var k in keys) {
			var x = parseFloat(keys[k]);
			var w = matches[keys[k]];
			if (x >= lastx + lastw - fudge) {
				count += w;
				lastx = x;
				lastw = w;
			}
		}
		// display matched percent
		matchedtxt.classList.remove("hide");
		var pct = 100 * count / maxwidth;
		if (pct != 100) pct = pct.toFixed(1)
		matchedtxt.firstChild.nodeValue = "Matched: " + pct + "%";
	}
]]>
</script>
<rect x="0.0" y="0" width="1200.0" height="310.0" fill="url(#background)"  />
<text id="title" x="600.00" y="24" >Flame Graph</text>
<text id="details" x="10.00" y="293" > </text>
<text id="unzoom" x="10.00" y="24" class="hide">Reset Zoom</text>
<text id="search" x="1090.00" y="24" >Search</text>
<text id="ignorecase" x="1174.00" y="24" >ic</text>
<text id="matched" x="1090.00" y="293" > </text>
<g id="frames">
<g >
<title>resp_start (152,991 samples, 5.03%)</title><rect x="1088.0" y="165" width="59.4" height="15.0" fill="rgb(239,160,38)" rx="2" ry="2" />
<text  x="1091.02" y="175.5" >resp_s..</text>
</g>
<g >
<title>item_get (1,205,168 samples, 39.60%)</title><rect x="598.8" y="133" width="467.3" height="15.0" fill="rgb(248,200,47)" rx="2" ry="2" />
<text  x="601.80" y="143.5" >item_get</text>
</g>
<g >
<title>do_item_get (2,202 samples, 0.07%)</title><rect x="597.9" y="133" width="0.9" height="15.0" fill="rgb(221,77,18)" rx="2" ry="2" />
<text  x="600.95" y="143.5" ></text>
</g>
<g >
<title>conn_set_state (778 samples, 0.03%)</title><rect x="514.1" y="165" width="0.3" height="15.0" fill="rgb(243,175,41)" rx="2" ry="2" />
<text  x="517.14" y="175.5" ></text>
</g>
<g >
<title>pthread_mutex_unlock@@GLIBC_2.2.5 (454 samples, 0.01%)</title><rect x="36.2" y="181" width="0.2" height="15.0" fill="rgb(227,104,24)" rx="2" ry="2" />
<text  x="39.18" y="191.5" ></text>
</g>
<g >
<title>do_item_remove (2,240 samples, 0.07%)</title><rect x="224.4" y="69" width="0.9" height="15.0" fill="rgb(214,42,10)" rx="2" ry="2" />
<text  x="227.41" y="79.5" ></text>
</g>
<g >
<title>__GI___pthread_enable_asynccancel (376 samples, 0.01%)</title><rect x="1147.5" y="165" width="0.2" height="15.0" fill="rgb(240,165,39)" rx="2" ry="2" />
<text  x="1150.54" y="175.5" ></text>
</g>
<g >
<title>write_bin_error (11,939 samples, 0.39%)</title><rect x="1067.1" y="117" width="4.6" height="15.0" fill="rgb(250,207,49)" rx="2" ry="2" />
<text  x="1070.08" y="127.5" ></text>
</g>
<g >
<title>try_read_network (6,833 samples, 0.22%)</title><rect x="1147.4" y="181" width="2.6" height="15.0" fill="rgb(231,121,29)" rx="2" ry="2" />
<text  x="1150.35" y="191.5" ></text>
</g>
<g >
<title>resp_start (1,299 samples, 0.04%)</title><rect x="514.4" y="181" width="0.5" height="15.0" fill="rgb(239,160,38)" rx="2" ry="2" />
<text  x="517.45" y="191.5" ></text>
</g>
<g >
<title>item_lock (4,305 samples, 0.14%)</title><rect x="858.4" y="117" width="1.7" height="15.0" fill="rgb(220,69,16)" rx="2" ry="2" />
<text  x="861.39" y="127.5" ></text>
</g>
<g >
<title>mc-lrumaint (98,277 samples, 3.23%)</title><rect x="10.0" y="245" width="38.1" height="15.0" fill="rgb(220,70,16)" rx="2" ry="2" />
<text  x="13.00" y="255.5" >mc-..</text>
</g>
<g >
<title>item_replace (341,531 samples, 11.22%)</title><rect x="170.5" y="101" width="132.5" height="15.0" fill="rgb(237,147,35)" rx="2" ry="2" />
<text  x="173.52" y="111.5" >item_replace</text>
</g>
<g >
<title>lru_pull_tail (11,383 samples, 0.37%)</title><rect x="30.7" y="181" width="4.5" height="15.0" fill="rgb(219,67,16)" rx="2" ry="2" />
<text  x="33.74" y="191.5" ></text>
</g>
<g >
<title>item_unlink_q (2,404 samples, 0.08%)</title><rect x="301.1" y="69" width="1.0" height="15.0" fill="rgb(227,105,25)" rx="2" ry="2" />
<text  x="304.13" y="79.5" ></text>
</g>
<g >
<title>pthread_mutex_lock@plt (1,090 samples, 0.04%)</title><rect x="223.6" y="53" width="0.4" height="15.0" fill="rgb(213,39,9)" rx="2" ry="2" />
<text  x="226.55" y="63.5" ></text>
</g>
<g >
<title>conn_set_state (1,404 samples, 0.05%)</title><rect x="483.3" y="181" width="0.5" height="15.0" fill="rgb(243,175,41)" rx="2" ry="2" />
<text  x="486.29" y="191.5" ></text>
</g>
<g >
<title>do_item_get (1,050 samples, 0.03%)</title><rect x="86.3" y="117" width="0.4" height="15.0" fill="rgb(221,77,18)" rx="2" ry="2" />
<text  x="89.27" y="127.5" ></text>
</g>
<g >
<title>get_object (666 samples, 0.02%)</title><rect x="512.0" y="149" width="0.2" height="15.0" fill="rgb(206,6,1)" rx="2" ry="2" />
<text  x="514.98" y="159.5" ></text>
</g>
<g >
<title>dispatch_bin_command (1,273,235 samples, 41.84%)</title><rect x="591.9" y="165" width="493.7" height="15.0" fill="rgb(238,152,36)" rx="2" ry="2" />
<text  x="594.90" y="175.5" >dispatch_bin_command</text>
</g>
<g >
<title>do_slabs_alloc (14,780 samples, 0.49%)</title><rect x="1074.3" y="69" width="5.7" height="15.0" fill="rgb(251,213,51)" rx="2" ry="2" />
<text  x="1077.28" y="79.5" ></text>
</g>
<g >
<title>MurmurHash3_x86_32 (649 samples, 0.02%)</title><rect x="34.0" y="165" width="0.2" height="15.0" fill="rgb(226,96,23)" rx="2" ry="2" />
<text  x="36.96" y="175.5" ></text>
</g>
<g >
<title>clock_gettime@@GLIBC_2.17 (22,619 samples, 0.74%)</title><rect x="1166.0" y="213" width="8.8" height="15.0" fill="rgb(250,209,50)" rx="2" ry="2" />
<text  x="1169.05" y="223.5" ></text>
</g>
<g >
<title>[libevent-2.1.so.7.0.1] (21,845 samples, 0.72%)</title><rect x="1152.2" y="181" width="8.4" height="15.0" fill="rgb(230,119,28)" rx="2" ry="2" />
<text  x="1155.16" y="191.5" ></text>
</g>
<g >
<title>process_bin_get_or_touch (1,226,048 samples, 40.29%)</title><rect x="596.3" y="149" width="475.4" height="15.0" fill="rgb(227,105,25)" rx="2" ry="2" />
<text  x="599.27" y="159.5" >process_bin_get_or_touch</text>
</g>
<g >
<title>STATS_LOCK (66,834 samples, 2.20%)</title><rect x="173.8" y="69" width="26.0" height="15.0" fill="rgb(253,224,53)" rx="2" ry="2" />
<text  x="176.84" y="79.5" >S..</text>
</g>
<g >
<title>_transmit_pre (81,870 samples, 2.69%)</title><rect x="557.9" y="165" width="31.7" height="15.0" fill="rgb(226,97,23)" rx="2" ry="2" />
<text  x="560.88" y="175.5" >_t..</text>
</g>
<g >
<title>pthread_mutex_unlock@@GLIBC_2.2.5 (3,645 samples, 0.12%)</title><rect x="1064.4" y="117" width="1.4" height="15.0" fill="rgb(227,104,24)" rx="2" ry="2" />
<text  x="1067.43" y="127.5" ></text>
</g>
<g >
<title>resp_allocate (142,175 samples, 4.67%)</title><rect x="1092.2" y="149" width="55.2" height="15.0" fill="rgb(237,150,35)" rx="2" ry="2" />
<text  x="1095.22" y="159.5" >resp_..</text>
</g>
<g >
<title>pthread_mutex_lock@@GLIBC_2.2.5 (51,851 samples, 1.70%)</title><rect x="245.0" y="53" width="20.1" height="15.0" fill="rgb(244,179,42)" rx="2" ry="2" />
<text  x="248.04" y="63.5" ></text>
</g>
<g >
<title>[libevent-2.1.so.7.0.1] (34,648 samples, 1.14%)</title><rect x="1152.1" y="213" width="13.4" height="15.0" fill="rgb(230,119,28)" rx="2" ry="2" />
<text  x="1155.05" y="223.5" ></text>
</g>
<g >
<title>rotl32 (308 samples, 0.01%)</title><rect x="602.0" y="101" width="0.1" height="15.0" fill="rgb(210,25,6)" rx="2" ry="2" />
<text  x="605.00" y="111.5" ></text>
</g>
<g >
<title>do_item_link (63,192 samples, 2.08%)</title><rect x="199.9" y="69" width="24.5" height="15.0" fill="rgb(211,28,6)" rx="2" ry="2" />
<text  x="202.90" y="79.5" >d..</text>
</g>
<g >
<title>pthread_mutex_lock@@GLIBC_2.2.5 (1,370 samples, 0.05%)</title><rect x="1086.9" y="165" width="0.5" height="15.0" fill="rgb(244,179,42)" rx="2" ry="2" />
<text  x="1089.91" y="175.5" ></text>
</g>
<g >
<title>ntohll (2,453 samples, 0.08%)</title><rect x="1085.7" y="165" width="0.9" height="15.0" fill="rgb(219,66,15)" rx="2" ry="2" />
<text  x="1088.65" y="175.5" ></text>
</g>
<g >
<title>complete_nread (1,070,341 samples, 35.17%)</title><rect x="68.2" y="181" width="415.0" height="15.0" fill="rgb(241,168,40)" rx="2" ry="2" />
<text  x="71.17" y="191.5" >complete_nread</text>
</g>
<g >
<title>start_thread (73,762 samples, 2.42%)</title><rect x="19.5" y="229" width="28.6" height="15.0" fill="rgb(212,34,8)" rx="2" ry="2" />
<text  x="22.51" y="239.5" >st..</text>
</g>
<g >
<title>pthread_mutex_lock@@GLIBC_2.2.5 (8,085 samples, 0.27%)</title><rect x="78.0" y="133" width="3.2" height="15.0" fill="rgb(244,179,42)" rx="2" ry="2" />
<text  x="81.02" y="143.5" ></text>
</g>
<g >
<title>event_active_nolock_ (1,313 samples, 0.04%)</title><rect x="1174.8" y="213" width="0.5" height="15.0" fill="rgb(213,40,9)" rx="2" ry="2" />
<text  x="1177.82" y="223.5" ></text>
</g>
<g >
<title>__memset_avx2_unaligned_erms (6,782 samples, 0.22%)</title><rect x="1089.5" y="149" width="2.6" height="15.0" fill="rgb(223,84,20)" rx="2" ry="2" />
<text  x="1092.50" y="159.5" ></text>
</g>
<g >
<title>memcmp@plt (269 samples, 0.01%)</title><rect x="858.3" y="101" width="0.1" height="15.0" fill="rgb(251,214,51)" rx="2" ry="2" />
<text  x="861.29" y="111.5" ></text>
</g>
<g >
<title>__memmove_avx_unaligned_erms (303 samples, 0.01%)</title><rect x="52.2" y="197" width="0.1" height="15.0" fill="rgb(205,0,0)" rx="2" ry="2" />
<text  x="55.15" y="207.5" ></text>
</g>
<g >
<title>mc_swap64 (1,817 samples, 0.06%)</title><rect x="1085.9" y="149" width="0.7" height="15.0" fill="rgb(209,21,5)" rx="2" ry="2" />
<text  x="1088.90" y="159.5" ></text>
</g>
<g >
<title>try_read_command_binary (1,438,254 samples, 47.26%)</title><rect x="589.6" y="181" width="557.8" height="15.0" fill="rgb(228,110,26)" rx="2" ry="2" />
<text  x="592.63" y="191.5" >try_read_command_binary</text>
</g>
<g >
<title>assoc_find (3,047 samples, 0.10%)</title><rect x="602.1" y="117" width="1.2" height="15.0" fill="rgb(237,147,35)" rx="2" ry="2" />
<text  x="605.12" y="127.5" ></text>
</g>
<g >
<title>do_store_item (558,235 samples, 18.34%)</title><rect x="86.7" y="117" width="216.5" height="15.0" fill="rgb(240,164,39)" rx="2" ry="2" />
<text  x="89.72" y="127.5" >do_store_item</text>
</g>
<g >
<title>assoc_find (1,190 samples, 0.04%)</title><rect x="92.8" y="101" width="0.5" height="15.0" fill="rgb(237,147,35)" rx="2" ry="2" />
<text  x="95.84" y="111.5" ></text>
</g>
<g >
<title>item_unlock (1,443 samples, 0.05%)</title><rect x="860.1" y="117" width="0.5" height="15.0" fill="rgb(253,224,53)" rx="2" ry="2" />
<text  x="863.06" y="127.5" ></text>
</g>
<g >
<title>binary_get_key (908 samples, 0.03%)</title><rect x="597.6" y="133" width="0.3" height="15.0" fill="rgb(227,101,24)" rx="2" ry="2" />
<text  x="600.60" y="143.5" ></text>
</g>
<g >
<title>rbuf_alloc (468 samples, 0.02%)</title><rect x="1150.0" y="197" width="0.2" height="15.0" fill="rgb(237,147,35)" rx="2" ry="2" />
<text  x="1153.00" y="207.5" ></text>
</g>
<g >
<title>pthread_mutex_unlock@@GLIBC_2.2.5 (2,152 samples, 0.07%)</title><rect x="1084.7" y="149" width="0.8" height="15.0" fill="rgb(227,104,24)" rx="2" ry="2" />
<text  x="1087.70" y="159.5" ></text>
</g>
<g >
<title>write_bin_miss_response (13,405 samples, 0.44%)</title><rect x="1066.5" y="133" width="5.2" height="15.0" fill="rgb(218,63,15)" rx="2" ry="2" />
<text  x="1069.51" y="143.5" ></text>
</g>
<g >
<title>transmit (4,230 samples, 0.14%)</title><rect x="1150.4" y="197" width="1.6" height="15.0" fill="rgb(215,50,12)" rx="2" ry="2" />
<text  x="1153.36" y="207.5" ></text>
</g>
<g >
<title>lru_maintainer_juggle (19,913 samples, 0.65%)</title><rect x="28.7" y="197" width="7.7" height="15.0" fill="rgb(251,214,51)" rx="2" ry="2" />
<text  x="31.72" y="207.5" ></text>
</g>
<g >
<title>do_slabs_free (1,608 samples, 0.05%)</title><rect x="169.7" y="53" width="0.6" height="15.0" fill="rgb(229,113,27)" rx="2" ry="2" />
<text  x="172.69" y="63.5" ></text>
</g>
<g >
<title>do_store_item (1,366 samples, 0.04%)</title><rect x="74.0" y="133" width="0.5" height="15.0" fill="rgb(240,164,39)" rx="2" ry="2" />
<text  x="76.97" y="143.5" ></text>
</g>
<g >
<title>[unknown] (260 samples, 0.01%)</title><rect x="1160.9" y="165" width="0.1" height="15.0" fill="rgb(210,24,5)" rx="2" ry="2" />
<text  x="1163.93" y="175.5" ></text>
</g>
<g >
<title>item_stats_sizes_remove (455 samples, 0.01%)</title><rect x="231.3" y="53" width="0.2" height="15.0" fill="rgb(247,196,47)" rx="2" ry="2" />
<text  x="234.29" y="63.5" ></text>
</g>
<g >
<title>bipbuf_peek_all (22,592 samples, 0.74%)</title><rect x="19.8" y="181" width="8.8" height="15.0" fill="rgb(211,32,7)" rx="2" ry="2" />
<text  x="22.84" y="191.5" ></text>
</g>
<g >
<title>pthread_mutex_unlock@@GLIBC_2.2.5 (1,118 samples, 0.04%)</title><rect x="224.0" y="53" width="0.4" height="15.0" fill="rgb(227,104,24)" rx="2" ry="2" />
<text  x="226.97" y="63.5" ></text>
</g>
<g >
<title>resp_finish (308 samples, 0.01%)</title><rect x="557.8" y="149" width="0.1" height="15.0" fill="rgb(253,224,53)" rx="2" ry="2" />
<text  x="560.76" y="159.5" ></text>
</g>
<g >
<title>resp_add_iov (336 samples, 0.01%)</title><rect x="1071.1" y="85" width="0.1" height="15.0" fill="rgb(254,228,54)" rx="2" ry="2" />
<text  x="1074.05" y="95.5" ></text>
</g>
<g >
<title>event_handler (2,837,710 samples, 93.25%)</title><rect x="51.6" y="213" width="1100.4" height="15.0" fill="rgb(231,120,28)" rx="2" ry="2" />
<text  x="54.64" y="223.5" >event_handler</text>
</g>
<g >
<title>bipbuf_is_empty (22,277 samples, 0.73%)</title><rect x="20.0" y="165" width="8.6" height="15.0" fill="rgb(221,74,17)" rx="2" ry="2" />
<text  x="22.97" y="175.5" ></text>
</g>
<g >
<title>do_item_link (2,650 samples, 0.09%)</title><rect x="170.6" y="85" width="1.0" height="15.0" fill="rgb(211,28,6)" rx="2" ry="2" />
<text  x="173.56" y="95.5" ></text>
</g>
<g >
<title>write_bin_error (266 samples, 0.01%)</title><rect x="1066.4" y="133" width="0.1" height="15.0" fill="rgb(250,207,49)" rx="2" ry="2" />
<text  x="1069.40" y="143.5" ></text>
</g>
<g >
<title>[unknown] (60,427 samples, 1.99%)</title><rect x="1152.0" y="229" width="23.5" height="15.0" fill="rgb(210,24,5)" rx="2" ry="2" />
<text  x="1155.04" y="239.5" >[..</text>
</g>
<g >
<title>rbuf_alloc (43,272 samples, 1.42%)</title><rect x="496.1" y="181" width="16.7" height="15.0" fill="rgb(237,147,35)" rx="2" ry="2" />
<text  x="499.06" y="191.5" ></text>
</g>
<g >
<title>binary_get_key (1,105 samples, 0.04%)</title><rect x="1072.3" y="133" width="0.5" height="15.0" fill="rgb(227,101,24)" rx="2" ry="2" />
<text  x="1075.34" y="143.5" ></text>
</g>
<g >
<title>lru_maintainer_thread (65,817 samples, 2.16%)</title><rect x="19.6" y="213" width="25.5" height="15.0" fill="rgb(240,162,38)" rx="2" ry="2" />
<text  x="22.57" y="223.5" >l..</text>
</g>
<g >
<title>event_handler (1,414 samples, 0.05%)</title><rect x="1175.6" y="229" width="0.6" height="15.0" fill="rgb(231,120,28)" rx="2" ry="2" />
<text  x="1178.64" y="239.5" ></text>
</g>
<g >
<title>item_is_flushed (278 samples, 0.01%)</title><rect x="168.5" y="85" width="0.1" height="15.0" fill="rgb(205,1,0)" rx="2" ry="2" />
<text  x="171.54" y="95.5" ></text>
</g>
<g >
<title>transmit (192,590 samples, 6.33%)</title><rect x="514.9" y="181" width="74.7" height="15.0" fill="rgb(215,50,12)" rx="2" ry="2" />
<text  x="517.95" y="191.5" >transmit</text>
</g>
<g >
<title>storage_delete (596 samples, 0.02%)</title><rect x="303.0" y="101" width="0.2" height="15.0" fill="rgb(209,20,4)" rx="2" ry="2" />
<text  x="305.96" y="111.5" ></text>
</g>
<g >
<title>pthread_mutex_unlock@plt (1,129 samples, 0.04%)</title><rect x="300.6" y="53" width="0.4" height="15.0" fill="rgb(247,194,46)" rx="2" ry="2" />
<text  x="303.60" y="63.5" ></text>
</g>
<g >
<title>process_bin_get_or_touch (583 samples, 0.02%)</title><rect x="1086.6" y="165" width="0.2" height="15.0" fill="rgb(227,105,25)" rx="2" ry="2" />
<text  x="1089.60" y="175.5" ></text>
</g>
<g >
<title>event_active_nolock_ (425 samples, 0.01%)</title><rect x="1165.5" y="197" width="0.2" height="15.0" fill="rgb(213,40,9)" rx="2" ry="2" />
<text  x="1168.52" y="207.5" ></text>
</g>
<g >
<title>_transmit_pre (4,818 samples, 0.16%)</title><rect x="66.3" y="181" width="1.9" height="15.0" fill="rgb(226,97,23)" rx="2" ry="2" />
<text  x="69.30" y="191.5" ></text>
</g>
<g >
<title>item_remove (8,352 samples, 0.27%)</title><rect x="74.6" y="133" width="3.2" height="15.0" fill="rgb(240,165,39)" rx="2" ry="2" />
<text  x="77.58" y="143.5" ></text>
</g>
<g >
<title>evmap_io_active_ (9,266 samples, 0.30%)</title><rect x="1161.9" y="181" width="3.6" height="15.0" fill="rgb(249,205,49)" rx="2" ry="2" />
<text  x="1164.89" y="191.5" ></text>
</g>
<g >
<title>event_base_loop (341 samples, 0.01%)</title><rect x="1175.5" y="229" width="0.1" height="15.0" fill="rgb(248,201,48)" rx="2" ry="2" />
<text  x="1178.47" y="239.5" ></text>
</g>
<g >
<title>pthread_mutex_lock@@GLIBC_2.2.5 (3,210 samples, 0.11%)</title><rect x="1073.0" y="85" width="1.2" height="15.0" fill="rgb(244,179,42)" rx="2" ry="2" />
<text  x="1076.00" y="95.5" ></text>
</g>
<g >
<title>pthread_mutex_lock@@GLIBC_2.2.5 (525,531 samples, 17.27%)</title><rect x="860.6" y="117" width="203.8" height="15.0" fill="rgb(244,179,42)" rx="2" ry="2" />
<text  x="863.62" y="127.5" >pthread_mutex_lock@@GLIBC_..</text>
</g>
<g >
<title>all (3,042,997 samples, 100%)</title><rect x="10.0" y="261" width="1180.0" height="15.0" fill="rgb(213,39,9)" rx="2" ry="2" />
<text  x="13.00" y="271.5" ></text>
</g>
<g >
<title>pthread_mutex_unlock@@GLIBC_2.2.5 (394 samples, 0.01%)</title><rect x="35.0" y="165" width="0.2" height="15.0" fill="rgb(227,104,24)" rx="2" ry="2" />
<text  x="38.00" y="175.5" ></text>
</g>
<g >
<title>pthread_mutex_unlock@@GLIBC_2.2.5 (3,238 samples, 0.11%)</title><rect x="43.7" y="197" width="1.2" height="15.0" fill="rgb(227,104,24)" rx="2" ry="2" />
<text  x="46.67" y="207.5" ></text>
</g>
<g >
<title>item_unlock (431 samples, 0.01%)</title><rect x="1066.2" y="133" width="0.2" height="15.0" fill="rgb(253,224,53)" rx="2" ry="2" />
<text  x="1069.24" y="143.5" ></text>
</g>
<g >
<title>pthread_mutex_unlock@@GLIBC_2.2.5 (1,313 samples, 0.04%)</title><rect x="168.9" y="69" width="0.5" height="15.0" fill="rgb(227,104,24)" rx="2" ry="2" />
<text  x="171.89" y="79.5" ></text>
</g>
<g >
<title>rotl32 (629 samples, 0.02%)</title><rect x="480.3" y="117" width="0.2" height="15.0" fill="rgb(210,25,6)" rx="2" ry="2" />
<text  x="483.28" y="127.5" ></text>
</g>
<g >
<title>pthread_mutex_lock@@GLIBC_2.2.5 (7,792 samples, 0.26%)</title><rect x="45.1" y="213" width="3.0" height="15.0" fill="rgb(244,179,42)" rx="2" ry="2" />
<text  x="48.09" y="223.5" ></text>
</g>
<g >
<title>do_item_unlink (2,302 samples, 0.08%)</title><rect x="302.1" y="85" width="0.9" height="15.0" fill="rgb(244,182,43)" rx="2" ry="2" />
<text  x="305.07" y="95.5" ></text>
</g>
<g >
<title>[[vdso]] (9,394 samples, 0.31%)</title><rect x="1171.2" y="197" width="3.6" height="15.0" fill="rgb(218,60,14)" rx="2" ry="2" />
<text  x="1174.18" y="207.5" ></text>
</g>
<g >
<title>add_bin_header (3,828 samples, 0.13%)</title><rect x="481.2" y="117" width="1.5" height="15.0" fill="rgb(209,22,5)" rx="2" ry="2" />
<text  x="484.18" y="127.5" ></text>
</g>
<g >
<title>add_bin_header (1,703 samples, 0.06%)</title><rect x="1070.9" y="101" width="0.6" height="15.0" fill="rgb(209,22,5)" rx="2" ry="2" />
<text  x="1073.88" y="111.5" ></text>
</g>
<g >
<title>pthread_mutex_unlock@@GLIBC_2.2.5 (1,598 samples, 0.05%)</title><rect x="479.7" y="117" width="0.6" height="15.0" fill="rgb(227,104,24)" rx="2" ry="2" />
<text  x="482.66" y="127.5" ></text>
</g>
<g >
<title>add_bin_header (347 samples, 0.01%)</title><rect x="1066.9" y="117" width="0.2" height="15.0" fill="rgb(209,22,5)" rx="2" ry="2" />
<text  x="1069.92" y="127.5" ></text>
</g>
<g >
<title>event_callback_activate_nolock_ (2,190 samples, 0.07%)</title><rect x="1161.0" y="181" width="0.9" height="15.0" fill="rgb(222,79,19)" rx="2" ry="2" />
<text  x="1164.04" y="191.5" ></text>
</g>
<g >
<title>item_free (4,039 samples, 0.13%)</title><rect x="168.7" y="85" width="1.6" height="15.0" fill="rgb(215,47,11)" rx="2" ry="2" />
<text  x="171.74" y="95.5" ></text>
</g>
<g >
<title>__vdso_clock_gettime (948 samples, 0.03%)</title><rect x="1165.7" y="213" width="0.3" height="15.0" fill="rgb(254,226,54)" rx="2" ry="2" />
<text  x="1168.68" y="223.5" ></text>
</g>
<g >
<title>do_item_unlink_q (1,331 samples, 0.04%)</title><rect x="34.2" y="165" width="0.6" height="15.0" fill="rgb(251,212,50)" rx="2" ry="2" />
<text  x="37.24" y="175.5" ></text>
</g>
<g >
<title>pthread_mutex_unlock@@GLIBC_2.2.5 (516 samples, 0.02%)</title><rect x="1087.4" y="165" width="0.2" height="15.0" fill="rgb(227,104,24)" rx="2" ry="2" />
<text  x="1090.44" y="175.5" ></text>
</g>
<g >
<title>do_item_remove (4,171 samples, 0.14%)</title><rect x="168.7" y="101" width="1.6" height="15.0" fill="rgb(214,42,10)" rx="2" ry="2" />
<text  x="171.72" y="111.5" ></text>
</g>
<g >
<title>MurmurHash3_x86_32 (7,835 samples, 0.26%)</title><rect x="74.7" y="117" width="3.0" height="15.0" fill="rgb(226,96,23)" rx="2" ry="2" />
<text  x="77.67" y="127.5" ></text>
</g>
<g >
<title>do_item_remove (5,430 samples, 0.18%)</title><rect x="228.9" y="53" width="2.1" height="15.0" fill="rgb(214,42,10)" rx="2" ry="2" />
<text  x="231.91" y="63.5" ></text>
</g>
<g >
<title>do_item_unlink_q (700 samples, 0.02%)</title><rect x="231.0" y="53" width="0.3" height="15.0" fill="rgb(251,212,50)" rx="2" ry="2" />
<text  x="234.02" y="63.5" ></text>
</g>
<g >
<title>memset@plt (3,151 samples, 0.10%)</title><rect x="484.3" y="181" width="1.2" height="15.0" fill="rgb(224,88,21)" rx="2" ry="2" />
<text  x="487.27" y="191.5" ></text>
</g>
<g >
<title>pthread_mutex_trylock@@GLIBC_2.34 (24,451 samples, 0.80%)</title><rect x="10.0" y="213" width="9.5" height="15.0" fill="rgb(223,86,20)" rx="2" ry="2" />
<text  x="13.00" y="223.5" ></text>
</g>
<g >
<title>pthread_mutex_unlock@@GLIBC_2.2.5 (349 samples, 0.01%)</title><rect x="495.9" y="181" width="0.2" height="15.0" fill="rgb(227,104,24)" rx="2" ry="2" />
<text  x="498.92" y="191.5" ></text>
</g>
<g >
<title>item_unlock (508 samples, 0.02%)</title><rect x="77.8" y="133" width="0.2" height="15.0" fill="rgb(253,224,53)" rx="2" ry="2" />
<text  x="80.82" y="143.5" ></text>
</g>
<g >
<title>do_cache_alloc (25,399 samples, 0.83%)</title><rect x="502.4" y="165" width="9.8" height="15.0" fill="rgb(214,44,10)" rx="2" ry="2" />
<text  x="505.38" y="175.5" ></text>
</g>
<g >
<title>resp_allocate (986 samples, 0.03%)</title><rect x="1087.6" y="165" width="0.4" height="15.0" fill="rgb(237,150,35)" rx="2" ry="2" />
<text  x="1090.64" y="175.5" ></text>
</g>
<g >
<title>lru_maintainer_bumps (23,119 samples, 0.76%)</title><rect x="19.6" y="197" width="9.0" height="15.0" fill="rgb(213,39,9)" rx="2" ry="2" />
<text  x="22.65" y="207.5" ></text>
</g>
<g >
<title>do_item_get (194,494 samples, 6.39%)</title><rect x="93.3" y="101" width="75.4" height="15.0" fill="rgb(221,77,18)" rx="2" ry="2" />
<text  x="96.30" y="111.5" >do_item_..</text>
</g>
<g >
<title>do_cache_alloc (849 samples, 0.03%)</title><rect x="483.9" y="181" width="0.3" height="15.0" fill="rgb(214,44,10)" rx="2" ry="2" />
<text  x="486.86" y="191.5" ></text>
</g>
<g >
<title>pthread_mutex_unlock@@GLIBC_2.2.5 (584 samples, 0.02%)</title><rect x="482.9" y="149" width="0.2" height="15.0" fill="rgb(227,104,24)" rx="2" ry="2" />
<text  x="485.91" y="159.5" ></text>
</g>
<g >
<title>mc-worker (2,944,720 samples, 96.77%)</title><rect x="48.1" y="245" width="1141.9" height="15.0" fill="rgb(226,100,24)" rx="2" ry="2" />
<text  x="51.11" y="255.5" >mc-worker</text>
</g>
<g >
<title>evmap_io_active_ (35,391 samples, 1.16%)</title><rect x="1176.2" y="229" width="13.7" height="15.0" fill="rgb(249,205,49)" rx="2" ry="2" />
<text  x="1179.19" y="239.5" ></text>
</g>
<g >
<title>pthread_mutex_lock@plt (1,189 samples, 0.04%)</title><rect x="1084.2" y="149" width="0.5" height="15.0" fill="rgb(213,39,9)" rx="2" ry="2" />
<text  x="1087.24" y="159.5" ></text>
</g>
<g >
<title>pthread_mutex_lock@@GLIBC_2.2.5 (45,173 samples, 1.48%)</title><rect x="206.0" y="53" width="17.6" height="15.0" fill="rgb(244,179,42)" rx="2" ry="2" />
<text  x="209.03" y="63.5" ></text>
</g>
<g >
<title>item_alloc (26,479 samples, 0.87%)</title><rect x="1072.8" y="133" width="10.2" height="15.0" fill="rgb(237,147,35)" rx="2" ry="2" />
<text  x="1075.77" y="143.5" ></text>
</g>
<g >
<title>read (5,863 samples, 0.19%)</title><rect x="1147.7" y="165" width="2.3" height="15.0" fill="rgb(252,216,51)" rx="2" ry="2" />
<text  x="1150.68" y="175.5" ></text>
</g>
<g >
<title>do_item_alloc_pull (18,409 samples, 0.60%)</title><rect x="1072.9" y="101" width="7.1" height="15.0" fill="rgb(222,78,18)" rx="2" ry="2" />
<text  x="1075.87" y="111.5" ></text>
</g>
<g >
<title>lru_maintainer_crawler_check (276 samples, 0.01%)</title><rect x="28.6" y="197" width="0.1" height="15.0" fill="rgb(206,8,2)" rx="2" ry="2" />
<text  x="31.61" y="207.5" ></text>
</g>
<g >
<title>STATS_UNLOCK (287 samples, 0.01%)</title><rect x="227.2" y="53" width="0.1" height="15.0" fill="rgb(250,210,50)" rx="2" ry="2" />
<text  x="230.23" y="63.5" ></text>
</g>
<g >
<title>do_item_unlink_q (28,958 samples, 0.95%)</title><rect x="233.8" y="37" width="11.2" height="15.0" fill="rgb(251,212,50)" rx="2" ry="2" />
<text  x="236.81" y="47.5" ></text>
</g>
<g >
<title>MurmurHash3_x86_32 (5,666 samples, 0.19%)</title><rect x="599.9" y="117" width="2.2" height="15.0" fill="rgb(226,96,23)" rx="2" ry="2" />
<text  x="602.93" y="127.5" ></text>
</g>
<g >
<title>item_trylock (464 samples, 0.02%)</title><rect x="34.8" y="165" width="0.1" height="15.0" fill="rgb(252,219,52)" rx="2" ry="2" />
<text  x="37.75" y="175.5" ></text>
</g>
<g >
<title>item_unlink_q (35,006 samples, 1.15%)</title><rect x="231.5" y="53" width="13.5" height="15.0" fill="rgb(227,105,25)" rx="2" ry="2" />
<text  x="234.46" y="63.5" ></text>
</g>
<g >
<title>assoc_find (172,291 samples, 5.66%)</title><rect x="101.7" y="85" width="66.8" height="15.0" fill="rgb(237,147,35)" rx="2" ry="2" />
<text  x="104.73" y="95.5" >assoc_f..</text>
</g>
<g >
<title>drive_machine (2,830,496 samples, 93.02%)</title><rect x="52.4" y="197" width="1097.6" height="15.0" fill="rgb(241,165,39)" rx="2" ry="2" />
<text  x="55.40" y="207.5" >drive_machine</text>
</g>
<g >
<title>complete_nread (282 samples, 0.01%)</title><rect x="52.3" y="197" width="0.1" height="15.0" fill="rgb(241,168,40)" rx="2" ry="2" />
<text  x="55.27" y="207.5" ></text>
</g>
<g >
<title>reset_cmd_handler (3,987 samples, 0.13%)</title><rect x="512.9" y="181" width="1.5" height="15.0" fill="rgb(221,75,18)" rx="2" ry="2" />
<text  x="515.90" y="191.5" ></text>
</g>
<g >
<title>__memcmp_avx2_movbe (15,690 samples, 0.52%)</title><rect x="607.3" y="101" width="6.1" height="15.0" fill="rgb(224,91,21)" rx="2" ry="2" />
<text  x="610.35" y="111.5" ></text>
</g>
<g >
<title>MurmurHash3_x86_32 (8,270 samples, 0.27%)</title><rect x="83.1" y="117" width="3.2" height="15.0" fill="rgb(226,96,23)" rx="2" ry="2" />
<text  x="86.07" y="127.5" ></text>
</g>
<g >
<title>pthread_mutex_unlock@plt (417 samples, 0.01%)</title><rect x="44.9" y="197" width="0.2" height="15.0" fill="rgb(247,194,46)" rx="2" ry="2" />
<text  x="47.93" y="207.5" ></text>
</g>
<g >
<title>complete_update_bin (1,063,159 samples, 34.94%)</title><rect x="70.5" y="149" width="412.3" height="15.0" fill="rgb(224,89,21)" rx="2" ry="2" />
<text  x="73.50" y="159.5" >complete_update_bin</text>
</g>
<g >
<title>do_item_replace (336,469 samples, 11.06%)</title><rect x="171.6" y="85" width="130.5" height="15.0" fill="rgb(210,24,5)" rx="2" ry="2" />
<text  x="174.59" y="95.5" >do_item_replace</text>
</g>
<g >
<title>pthread_mutex_lock@@GLIBC_2.2.5 (450,332 samples, 14.80%)</title><rect x="305.0" y="117" width="174.6" height="15.0" fill="rgb(244,179,42)" rx="2" ry="2" />
<text  x="307.99" y="127.5" >pthread_mutex_lock@@GL..</text>
</g>
<g >
<title>assoc_find (631,320 samples, 20.75%)</title><rect x="613.4" y="101" width="244.8" height="15.0" fill="rgb(237,147,35)" rx="2" ry="2" />
<text  x="616.43" y="111.5" >assoc_find</text>
</g>
<g >
<title>do_item_alloc (26,423 samples, 0.87%)</title><rect x="1072.8" y="117" width="10.2" height="15.0" fill="rgb(210,24,5)" rx="2" ry="2" />
<text  x="1075.79" y="127.5" ></text>
</g>
<g >
<title>[unknown] (34,373 samples, 1.13%)</title><rect x="1152.2" y="197" width="13.3" height="15.0" fill="rgb(210,24,5)" rx="2" ry="2" />
<text  x="1155.16" y="207.5" ></text>
</g>
<g >
<title>slabs_alloc (14,796 samples, 0.49%)</title><rect x="1074.3" y="85" width="5.7" height="15.0" fill="rgb(228,106,25)" rx="2" ry="2" />
<text  x="1077.27" y="95.5" ></text>
</g>
<g >
<title>pthread_mutex_lock@@GLIBC_2.2.5 (335 samples, 0.01%)</title><rect x="482.8" y="149" width="0.1" height="15.0" fill="rgb(244,179,42)" rx="2" ry="2" />
<text  x="485.78" y="159.5" ></text>
</g>
<g >
<title>__memmove_avx_unaligned_erms (379 samples, 0.01%)</title><rect x="63.3" y="181" width="0.2" height="15.0" fill="rgb(205,0,0)" rx="2" ry="2" />
<text  x="66.34" y="191.5" ></text>
</g>
<g >
<title>write_bin_response (5,643 samples, 0.19%)</title><rect x="480.6" y="133" width="2.2" height="15.0" fill="rgb(250,210,50)" rx="2" ry="2" />
<text  x="483.58" y="143.5" ></text>
</g>
<g >
<title>pthread_mutex_lock@@GLIBC_2.2.5 (3,077 samples, 0.10%)</title><rect x="1083.0" y="149" width="1.2" height="15.0" fill="rgb(244,179,42)" rx="2" ry="2" />
<text  x="1086.04" y="159.5" ></text>
</g>
<g >
<title>process_bin_update (29,235 samples, 0.96%)</title><rect x="1071.7" y="149" width="11.3" height="15.0" fill="rgb(205,3,0)" rx="2" ry="2" />
<text  x="1074.71" y="159.5" ></text>
</g>
<g >
<title>slabs_clsid (7,734 samples, 0.25%)</title><rect x="1080.0" y="101" width="3.0" height="15.0" fill="rgb(252,217,52)" rx="2" ry="2" />
<text  x="1083.04" y="111.5" ></text>
</g>
<g >
<title>do_item_get (657,822 samples, 21.62%)</title><rect x="603.3" y="117" width="255.1" height="15.0" fill="rgb(221,77,18)" rx="2" ry="2" />
<text  x="606.30" y="127.5" >do_item_get</text>
</g>
<g >
<title>resp_reset (921 samples, 0.03%)</title><rect x="1071.2" y="85" width="0.3" height="15.0" fill="rgb(211,27,6)" rx="2" ry="2" />
<text  x="1074.18" y="95.5" ></text>
</g>
<g >
<title>_transmit_post (349 samples, 0.01%)</title><rect x="557.7" y="165" width="0.2" height="15.0" fill="rgb(205,3,0)" rx="2" ry="2" />
<text  x="560.75" y="175.5" ></text>
</g>
<g >
<title>assoc_delete (4,043 samples, 0.13%)</title><rect x="227.3" y="53" width="1.6" height="15.0" fill="rgb(230,117,28)" rx="2" ry="2" />
<text  x="230.34" y="63.5" ></text>
</g>
<g >
<title>__memset_avx2_unaligned_erms (7,253 samples, 0.24%)</title><rect x="63.5" y="181" width="2.8" height="15.0" fill="rgb(223,84,20)" rx="2" ry="2" />
<text  x="66.49" y="191.5" ></text>
</g>
<g >
<title>complete_nread_binary (1,069,972 samples, 35.16%)</title><rect x="68.3" y="165" width="414.9" height="15.0" fill="rgb(211,29,6)" rx="2" ry="2" />
<text  x="71.26" y="175.5" >complete_nread_binary</text>
</g>
<g >
<title>store_item (1,029,895 samples, 33.84%)</title><rect x="81.2" y="133" width="399.4" height="15.0" fill="rgb(217,57,13)" rx="2" ry="2" />
<text  x="84.21" y="143.5" >store_item</text>
</g>
<g >
<title>pthread_mutex_lock@@GLIBC_2.2.5 (26,651 samples, 0.88%)</title><rect x="485.6" y="181" width="10.3" height="15.0" fill="rgb(244,179,42)" rx="2" ry="2" />
<text  x="488.59" y="191.5" ></text>
</g>
<g >
<title>pthread_mutex_lock@@GLIBC_2.2.5 (18,428 samples, 0.61%)</title><rect x="36.5" y="197" width="7.1" height="15.0" fill="rgb(244,179,42)" rx="2" ry="2" />
<text  x="39.47" y="207.5" ></text>
</g>
<g >
<title>STATS_LOCK (2,535 samples, 0.08%)</title><rect x="205.0" y="53" width="0.9" height="15.0" fill="rgb(253,224,53)" rx="2" ry="2" />
<text  x="207.95" y="63.5" ></text>
</g>
<g >
<title>item_lock (3,984 samples, 0.13%)</title><rect x="303.2" y="117" width="1.5" height="15.0" fill="rgb(220,69,16)" rx="2" ry="2" />
<text  x="306.19" y="127.5" ></text>
</g>
<g >
<title>slabs_free (2,340 samples, 0.08%)</title><rect x="169.4" y="69" width="0.9" height="15.0" fill="rgb(206,6,1)" rx="2" ry="2" />
<text  x="172.40" y="79.5" ></text>
</g>
<g >
<title>[libevent-2.1.so.7.0.1] (2,846,827 samples, 93.55%)</title><rect x="48.1" y="229" width="1103.9" height="15.0" fill="rgb(230,119,28)" rx="2" ry="2" />
<text  x="51.11" y="239.5" >[libevent-2.1.so.7.0.1]</text>
</g>
<g >
<title>pthread_mutex_lock@@GLIBC_2.2.5 (2,586 samples, 0.08%)</title><rect x="35.2" y="181" width="1.0" height="15.0" fill="rgb(244,179,42)" rx="2" ry="2" />
<text  x="38.16" y="191.5" ></text>
</g>
<g >
<title>item_replace (435 samples, 0.01%)</title><rect x="304.7" y="117" width="0.2" height="15.0" fill="rgb(237,147,35)" rx="2" ry="2" />
<text  x="307.73" y="127.5" ></text>
</g>
<g >
<title>item_is_flushed (271 samples, 0.01%)</title><rect x="170.4" y="101" width="0.1" height="15.0" fill="rgb(205,1,0)" rx="2" ry="2" />
<text  x="173.42" y="111.5" ></text>
</g>
<g >
<title>binary_get_key (538 samples, 0.02%)</title><rect x="596.0" y="149" width="0.2" height="15.0" fill="rgb(227,101,24)" rx="2" ry="2" />
<text  x="599.00" y="159.5" ></text>
</g>
<g >
<title>__GI___pthread_disable_asynccancel (714 samples, 0.02%)</title><rect x="1160.6" y="181" width="0.3" height="15.0" fill="rgb(236,146,34)" rx="2" ry="2" />
<text  x="1163.63" y="191.5" ></text>
</g>
<g >
<title>[unknown] (502 samples, 0.02%)</title><rect x="1165.5" y="213" width="0.2" height="15.0" fill="rgb(210,24,5)" rx="2" ry="2" />
<text  x="1168.49" y="223.5" ></text>
</g>
<g >
<title>[unknown] (24,451 samples, 0.80%)</title><rect x="10.0" y="229" width="9.5" height="15.0" fill="rgb(210,24,5)" rx="2" ry="2" />
<text  x="13.00" y="239.5" ></text>
</g>
<g >
<title>pthread_mutex_unlock@plt (522 samples, 0.02%)</title><rect x="1065.8" y="117" width="0.2" height="15.0" fill="rgb(247,194,46)" rx="2" ry="2" />
<text  x="1068.85" y="127.5" ></text>
</g>
<g >
<title>get_object (1,564 samples, 0.05%)</title><rect x="512.2" y="165" width="0.6" height="15.0" fill="rgb(206,6,1)" rx="2" ry="2" />
<text  x="515.23" y="175.5" ></text>
</g>
<g >
<title>reset_cmd_handler (449 samples, 0.01%)</title><rect x="1150.2" y="197" width="0.2" height="15.0" fill="rgb(221,75,18)" rx="2" ry="2" />
<text  x="1153.18" y="207.5" ></text>
</g>
<g >
<title>evutil_gettime_monotonic_ (365 samples, 0.01%)</title><rect x="1175.3" y="213" width="0.2" height="15.0" fill="rgb(231,122,29)" rx="2" ry="2" />
<text  x="1178.33" y="223.5" ></text>
</g>
<g >
<title>do_item_unlink (195,389 samples, 6.42%)</title><rect x="225.3" y="69" width="75.7" height="15.0" fill="rgb(244,182,43)" rx="2" ry="2" />
<text  x="228.28" y="79.5" >do_item_..</text>
</g>
<g >
<title>__memcmp_avx2_movbe (6,635 samples, 0.22%)</title><rect x="99.2" y="85" width="2.5" height="15.0" fill="rgb(224,91,21)" rx="2" ry="2" />
<text  x="102.15" y="95.5" ></text>
</g>
<g >
<title>epoll_wait (289 samples, 0.01%)</title><rect x="1160.9" y="181" width="0.1" height="15.0" fill="rgb(238,154,36)" rx="2" ry="2" />
<text  x="1163.92" y="191.5" ></text>
</g>
<g >
<title>pthread_mutex_unlock@@GLIBC_2.2.5 (91,447 samples, 3.01%)</title><rect x="265.1" y="53" width="35.5" height="15.0" fill="rgb(227,104,24)" rx="2" ry="2" />
<text  x="268.14" y="63.5" >pth..</text>
</g>
</g>
</svg>
